<svg width="24" height="24" viewBox="0 0 24 24" fill="none" xmlns="http://www.w3.org/2000/svg">
<path fill-rule="evenodd" clip-rule="evenodd" d="M3 9.94483C3 7.15172 5.43771 5 8.29714 5C9.77109 5 11.0691 5.69517 12 6.59517C12.9309 5.69517 14.2279 5 15.7029 5C18.5623 5 21 7.15172 21 9.94483C21 11.8586 20.1885 13.5407 19.0642 14.9641C17.9431 16.3834 16.4743 17.5886 15.0693 18.5683C14.5313 18.9428 13.9893 19.2872 13.4914 19.5417C13.0255 19.7807 12.4886 20 12 20C11.5114 20 10.9755 19.7807 10.5086 19.5417C9.96277 19.2516 9.43608 18.9264 8.93177 18.5683C7.52571 17.5886 6.05794 16.3834 4.93577 14.9641C3.81154 13.5407 3 11.8586 3 9.94483Z" fill="#FE5500"/>
</svg>
