<svg width="24" height="24" viewBox="0 0 24 24" fill="none" xmlns="http://www.w3.org/2000/svg">
<g clip-path="url(#clip0_150_11088)">
<g filter="url(#filter0_d_150_11088)">
<path fill-rule="evenodd" clip-rule="evenodd" d="M3 9.94483C3 7.15172 5.43771 5 8.29714 5C9.77109 5 11.0691 5.69517 12 6.59517C12.9309 5.69517 14.2279 5 15.7029 5C18.5623 5 21 7.15172 21 9.94483C21 11.8586 20.1885 13.5407 19.0642 14.9641C17.9431 16.3834 16.4743 17.5886 15.0693 18.5683C14.5313 18.9428 13.9893 19.2872 13.4914 19.5417C13.0255 19.7807 12.4886 20 12 20C11.5114 20 10.9755 19.7807 10.5086 19.5417C9.96277 19.2516 9.43608 18.9264 8.93177 18.5683C7.52571 17.5886 6.05794 16.3834 4.93577 14.9641C3.81154 13.5407 3 11.8586 3 9.94483ZM8.29714 6.55172C6.15771 6.55172 4.54286 8.13448 4.54286 9.94483C4.54286 11.3962 5.15589 12.7483 6.14331 13.9979C7.1328 15.2497 8.4648 16.3555 9.81017 17.2928C10.3193 17.6476 10.7976 17.9486 11.209 18.1597C11.6493 18.3852 11.9043 18.4483 12 18.4483C12.0957 18.4483 12.3507 18.3852 12.792 18.1586C13.2769 17.9016 13.7442 17.6123 14.1909 17.2928C15.5352 16.3555 16.8672 15.2507 17.8567 13.9979C18.8441 12.7483 19.4571 11.3962 19.4571 9.94483C19.4571 8.13448 17.8423 6.55172 15.7029 6.55172C14.4747 6.55172 13.3269 7.28931 12.612 8.22655C12.54 8.32096 12.4473 8.39744 12.3412 8.45007C12.2351 8.5027 12.1183 8.53008 12 8.53008C11.8817 8.53008 11.7649 8.5027 11.6588 8.45007C11.5527 8.39744 11.46 8.32096 11.388 8.22655C10.6731 7.28931 9.52629 6.55172 8.29714 6.55172Z" fill="white"/>
</g>
<path opacity="0.2" fill-rule="evenodd" clip-rule="evenodd" d="M8.29714 6.55078C6.15771 6.55078 4.54285 8.13354 4.54285 9.94388C4.54285 11.3953 5.15588 12.7473 6.14331 13.997C7.1328 15.2487 8.4648 16.3546 9.81017 17.2918C10.3193 17.6466 10.7976 17.9477 11.209 18.1587C11.6493 18.3842 11.9043 18.4473 12 18.4473C12.0957 18.4473 12.3507 18.3842 12.792 18.1577C13.2769 17.9006 13.7442 17.6114 14.1909 17.2918C15.5352 16.3546 16.8672 15.2497 17.8567 13.997C18.8441 12.7473 19.4571 11.3953 19.4571 9.94388C19.4571 8.13354 17.8423 6.55078 15.7029 6.55078C14.4747 6.55078 13.3269 7.28837 12.612 8.22561C12.54 8.32002 12.4473 8.3965 12.3412 8.44913C12.2351 8.50176 12.1183 8.52914 12 8.52914C11.8817 8.52914 11.7649 8.50176 11.6588 8.44913C11.5527 8.3965 11.46 8.32002 11.388 8.22561C10.6731 7.28837 9.52628 6.55078 8.29714 6.55078Z" fill="white"/>
</g>
<defs>
<filter id="filter0_d_150_11088" x="-0.9" y="1.1" width="25.8" height="22.8" filterUnits="userSpaceOnUse" color-interpolation-filters="sRGB">
<feFlood flood-opacity="0" result="BackgroundImageFix"/>
<feColorMatrix in="SourceAlpha" type="matrix" values="0 0 0 0 0 0 0 0 0 0 0 0 0 0 0 0 0 0 127 0" result="hardAlpha"/>
<feOffset/>
<feGaussianBlur stdDeviation="1.95"/>
<feComposite in2="hardAlpha" operator="out"/>
<feColorMatrix type="matrix" values="0 0 0 0 0 0 0 0 0 0 0 0 0 0 0 0 0 0 0.2 0"/>
<feBlend mode="normal" in2="BackgroundImageFix" result="effect1_dropShadow_150_11088"/>
<feBlend mode="normal" in="SourceGraphic" in2="effect1_dropShadow_150_11088" result="shape"/>
</filter>
<clipPath id="clip0_150_11088">
<rect width="24" height="24" fill="white"/>
</clipPath>
</defs>
</svg>
