<svg width="24" height="24" viewBox="0 0 24 24" fill="none" xmlns="http://www.w3.org/2000/svg">
<g clip-path="url(#clip0_142_14724)">
<path d="M12.5 20C11.4067 20 10.3733 19.7899 9.4 19.3696C8.42667 18.9493 7.5768 18.376 6.8504 17.6496C6.124 16.9232 5.55067 16.0733 5.1304 15.1C4.71013 14.1267 4.5 13.0933 4.5 12C4.5 10.8933 4.7168 9.85333 5.1504 8.88C5.584 7.90667 6.17067 7.06 6.9104 6.34C7.65013 5.62 8.51333 5.05013 9.5 4.6304C10.4867 4.21067 11.54 4.00053 12.66 4C13.7267 4 14.7333 4.18347 15.68 4.5504C16.6267 4.91733 17.4568 5.424 18.1704 6.0704C18.884 6.7168 19.4507 7.48347 19.8704 8.3704C20.2901 9.25733 20.5 10.2139 20.5 11.24C20.5 12.7733 20.0333 13.9501 19.1 14.7704C18.1667 15.5907 17.0333 16.0005 15.7 16H14.22C14.1 16 14.0168 16.0333 13.9704 16.1C13.924 16.1667 13.9005 16.24 13.9 16.32C13.9 16.48 14 16.7101 14.2 17.0104C14.4 17.3107 14.5 17.6539 14.5 18.04C14.5 18.7067 14.3168 19.2 13.9504 19.52C13.584 19.84 13.1005 20 12.5 20ZM8.1 12.8C8.44667 12.8 8.73333 12.6867 8.96 12.46C9.18667 12.2333 9.3 11.9467 9.3 11.6C9.3 11.2533 9.18667 10.9667 8.96 10.74C8.73333 10.5133 8.44667 10.4 8.1 10.4C7.75333 10.4 7.46667 10.5133 7.24 10.74C7.01333 10.9667 6.9 11.2533 6.9 11.6C6.9 11.9467 7.01333 12.2333 7.24 12.46C7.46667 12.6867 7.75333 12.8 8.1 12.8ZM10.5 9.6C10.8467 9.6 11.1333 9.48667 11.36 9.26C11.5867 9.03333 11.7 8.74667 11.7 8.4C11.7 8.05333 11.5867 7.76667 11.36 7.54C11.1333 7.31333 10.8467 7.2 10.5 7.2C10.1533 7.2 9.86667 7.31333 9.64 7.54C9.41333 7.76667 9.3 8.05333 9.3 8.4C9.3 8.74667 9.41333 9.03333 9.64 9.26C9.86667 9.48667 10.1533 9.6 10.5 9.6ZM14.5 9.6C14.8467 9.6 15.1333 9.48667 15.36 9.26C15.5867 9.03333 15.7 8.74667 15.7 8.4C15.7 8.05333 15.5867 7.76667 15.36 7.54C15.1333 7.31333 14.8467 7.2 14.5 7.2C14.1533 7.2 13.8667 7.31333 13.64 7.54C13.4133 7.76667 13.3 8.05333 13.3 8.4C13.3 8.74667 13.4133 9.03333 13.64 9.26C13.8667 9.48667 14.1533 9.6 14.5 9.6ZM16.9 12.8C17.2467 12.8 17.5333 12.6867 17.76 12.46C17.9867 12.2333 18.1 11.9467 18.1 11.6C18.1 11.2533 17.9867 10.9667 17.76 10.74C17.5333 10.5133 17.2467 10.4 16.9 10.4C16.5533 10.4 16.2667 10.5133 16.04 10.74C15.8133 10.9667 15.7 11.2533 15.7 11.6C15.7 11.9467 15.8133 12.2333 16.04 12.46C16.2667 12.6867 16.5533 12.8 16.9 12.8ZM12.5 18.4C12.62 18.4 12.7168 18.3667 12.7904 18.3C12.864 18.2333 12.9005 18.1467 12.9 18.04C12.9 17.8533 12.8 17.6333 12.6 17.38C12.4 17.1267 12.3 16.7467 12.3 16.24C12.3 15.68 12.4933 15.2333 12.88 14.9C13.2667 14.5667 13.74 14.4 14.3 14.4H15.7C16.58 14.4 17.3333 14.1435 17.96 13.6304C18.5867 13.1173 18.9 12.3205 18.9 11.24C18.9 9.62667 18.2835 8.2832 17.0504 7.2096C15.8173 6.136 14.3539 5.59947 12.66 5.6C10.8467 5.6 9.3 6.22 8.02 7.46C6.74 8.7 6.1 10.2133 6.1 12C6.1 13.7733 6.72347 15.2835 7.9704 16.5304C9.21733 17.7773 10.7272 18.4005 12.5 18.4Z" fill="#333333"/>
</g>
<defs>
<clipPath id="clip0_142_14724">
<rect width="24" height="24" fill="white"/>
</clipPath>
</defs>
</svg>
