<?xml version="1.0" encoding="UTF-8"?>
<svg id="Layer_1" xmlns="http://www.w3.org/2000/svg" version="1.1" viewBox="0 0 24 24">
  <!-- Generator: Adobe Illustrator 29.5.1, SVG Export Plug-In . SVG Version: 2.1.0 Build 141)  -->
  <defs>
    <style>
      .st0 {
        fill: #333;
      }
    </style>
  </defs>
  <path class="st0" d="M12,22c-1.4,0-2.7-.3-3.9-.8-1.2-.5-2.3-1.2-3.2-2.1-.9-.9-1.6-2-2.2-3.2-.5-1.2-.8-2.5-.8-3.9s.3-2.7.8-3.9c.5-1.2,1.3-2.3,2.2-3.2.9-.9,2-1.6,3.2-2.1,1.2-.5,2.6-.8,3.9-.8,1.3,0,2.6.2,3.8.7,1.2.5,2.2,1.1,3.1,1.9.9.8,1.6,1.8,2.1,2.9s.8,2.3.8,3.6c0,1.9-.6,3.4-1.8,4.4s-2.6,1.5-4.2,1.5h-1.9c-.1,0-.3,0-.3.1,0,0,0,.2,0,.3,0,.2.1.5.4.9.2.4.4.8.4,1.3,0,.8-.2,1.5-.7,1.9s-1.1.6-1.8.6ZM6.5,13c.4,0,.8-.1,1.1-.4.3-.3.4-.6.4-1.1s-.1-.8-.4-1.1c-.3-.3-.6-.4-1.1-.4s-.8.1-1.1.4c-.3.3-.4.6-.4,1.1s.1.8.4,1.1c.3.3.6.4,1.1.4ZM9.5,9c.4,0,.8-.1,1.1-.4.3-.3.4-.6.4-1.1s-.1-.8-.4-1.1c-.3-.3-.6-.4-1.1-.4s-.8.1-1.1.4-.4.6-.4,1.1.1.8.4,1.1.6.4,1.1.4ZM14.5,9c.4,0,.8-.1,1.1-.4.3-.3.4-.6.4-1.1s-.1-.8-.4-1.1c-.3-.3-.6-.4-1.1-.4s-.8.1-1.1.4c-.3.3-.4.6-.4,1.1s.1.8.4,1.1c.3.3.6.4,1.1.4ZM17.5,13c.4,0,.8-.1,1.1-.4.3-.3.4-.6.4-1.1s-.1-.8-.4-1.1c-.3-.3-.6-.4-1.1-.4s-.8.1-1.1.4c-.3.3-.4.6-.4,1.1s.1.8.4,1.1c.3.3.6.4,1.1.4ZM12,20c.1,0,.3,0,.4-.1s.1-.2.1-.3c0-.2-.1-.5-.4-.8s-.4-.8-.4-1.4.2-1.3.7-1.7c.5-.4,1.1-.6,1.8-.6h1.8c1.1,0,2-.3,2.8-1,.8-.6,1.2-1.6,1.2-3,0-2-.8-3.7-2.3-5s-3.4-2-5.5-2c-2.3,0-4.2.8-5.8,2.3-1.6,1.6-2.4,3.4-2.4,5.7s.8,4.1,2.3,5.7,3.4,2.3,5.7,2.3Z"/>
</svg>