<svg width="24" height="24" viewBox="0 0 24 24" fill="none" xmlns="http://www.w3.org/2000/svg">
<g clip-path="url(#clip0_142_14486)">
<path d="M5.6 16.8C6.35 16.2167 6.93767 15.5083 7.363 14.675C7.78833 13.8417 8.00067 12.95 8 12C7.99933 11.05 7.78667 10.1583 7.362 9.325C6.93733 8.49167 6.35 7.78333 5.6 7.2C5.08333 7.9 4.68767 8.65833 4.413 9.475C4.13833 10.2917 4.00067 11.1333 4 12C3.99933 12.8667 4.137 13.7083 4.413 14.525C4.689 15.3417 5.08467 16.1 5.6 16.8ZM12 20C12.9167 20 13.8043 19.8543 14.663 19.563C15.5217 19.2717 16.3007 18.834 17 18.25C16.05 17.4833 15.3127 16.5543 14.788 15.463C14.2633 14.3717 14.0007 13.2173 14 12C13.9993 10.7827 14.262 9.62833 14.788 8.537C15.314 7.44567 16.0513 6.51667 17 5.75C16.3 5.16667 15.521 4.72933 14.663 4.438C13.805 4.14667 12.9173 4.00067 12 4C11.0827 3.99933 10.1953 4.14533 9.338 4.438C8.48067 4.73067 7.70133 5.168 7 5.75C7.95 6.51667 8.68767 7.446 9.213 8.538C9.73834 9.63 10.0007 10.784 10 12C9.99933 13.216 9.73667 14.3703 9.212 15.463C8.68733 16.5557 7.95 17.4847 7 18.25C7.7 18.8333 8.47933 19.271 9.338 19.563C10.1967 19.855 11.084 20.0007 12 20ZM18.4 16.8C18.9167 16.1 19.3127 15.3417 19.588 14.525C19.8633 13.7083 20.0007 12.8667 20 12C19.9993 11.1333 19.8617 10.2917 19.587 9.475C19.3123 8.65833 18.9167 7.9 18.4 7.2C17.65 7.78333 17.0623 8.49167 16.637 9.325C16.2117 10.1583 15.9993 11.05 16 12C16.0007 12.95 16.2133 13.8417 16.638 14.675C17.0627 15.5083 17.65 16.2167 18.4 16.8ZM12 22C10.6167 22 9.31667 21.7373 8.1 21.212C6.88334 20.6867 5.825 19.9743 4.925 19.075C4.025 18.1757 3.31267 17.1173 2.788 15.9C2.26333 14.6827 2.00067 13.3827 2 12C1.99933 10.6173 2.262 9.31733 2.788 8.1C3.314 6.88267 4.02633 5.82433 4.925 4.925C5.82367 4.02567 6.882 3.31333 8.1 2.788C9.318 2.26267 10.618 2 12 2C13.382 2 14.682 2.26267 15.9 2.788C17.118 3.31333 18.1763 4.02567 19.075 4.925C19.9737 5.82433 20.6863 6.88267 21.213 8.1C21.7397 9.31733 22.002 10.6173 22 12C21.998 13.3827 21.7353 14.6827 21.212 15.9C20.6887 17.1173 19.9763 18.1757 19.075 19.075C18.1737 19.9743 17.1153 20.687 15.9 21.213C14.6847 21.739 13.3847 22.0013 12 22Z" fill="#333333"/>
</g>
<defs>
<clipPath id="clip0_142_14486">
<rect width="24" height="24" fill="white"/>
</clipPath>
</defs>
</svg>
