<svg width="24" height="24" viewBox="0 0 24 24" fill="none" xmlns="http://www.w3.org/2000/svg">
<g clip-path="url(#clip0_142_14748)">
<path d="M6.88 15.84C7.48 15.3733 7.95013 14.8067 8.2904 14.14C8.63067 13.4733 8.80053 12.76 8.8 12C8.79947 11.24 8.62933 10.5267 8.2896 9.86C7.94987 9.19333 7.48 8.62667 6.88 8.16C6.46667 8.72 6.15013 9.32667 5.9304 9.98C5.71067 10.6333 5.60053 11.3067 5.6 12C5.59947 12.6933 5.7096 13.3667 5.9304 14.02C6.1512 14.6733 6.46773 15.28 6.88 15.84ZM12 18.4C12.7333 18.4 13.4435 18.2835 14.1304 18.0504C14.8173 17.8173 15.4405 17.4672 16 17C15.24 16.3867 14.6501 15.6435 14.2304 14.7704C13.8107 13.8973 13.6005 12.9739 13.6 12C13.5995 11.0261 13.8096 10.1027 14.2304 9.2296C14.6512 8.35653 15.2411 7.61333 16 7C15.44 6.53333 14.8168 6.18347 14.1304 5.9504C13.444 5.71733 12.7339 5.60053 12 5.6C11.2661 5.59947 10.5563 5.71627 9.8704 5.9504C9.18453 6.18453 8.56107 6.5344 8 7C8.76 7.61333 9.35013 8.3568 9.7704 9.2304C10.1907 10.104 10.4005 11.0272 10.4 12C10.3995 12.9728 10.1893 13.8963 9.7696 14.7704C9.34987 15.6445 8.76 16.3877 8 17C8.56 17.4667 9.18347 17.8168 9.8704 18.0504C10.5573 18.284 11.2672 18.4005 12 18.4ZM17.12 15.84C17.5333 15.28 17.8501 14.6733 18.0704 14.02C18.2907 13.3667 18.4005 12.6933 18.4 12C18.3995 11.3067 18.2893 10.6333 18.0696 9.98C17.8499 9.32667 17.5333 8.72 17.12 8.16C16.52 8.62667 16.0499 9.19333 15.7096 9.86C15.3693 10.5267 15.1995 11.24 15.2 12C15.2005 12.76 15.3707 13.4733 15.7104 14.14C16.0501 14.8067 16.52 15.3733 17.12 15.84ZM12 20C10.8933 20 9.85333 19.7899 8.88 19.3696C7.90667 18.9493 7.06 18.3795 6.34 17.66C5.62 16.9405 5.05013 16.0939 4.6304 15.12C4.21067 14.1461 4.00053 13.1061 4 12C3.99947 10.8939 4.2096 9.85387 4.6304 8.88C5.0512 7.90613 5.62107 7.05947 6.34 6.34C7.05893 5.62053 7.9056 5.05067 8.88 4.6304C9.8544 4.21013 10.8944 4 12 4C13.1056 4 14.1456 4.21013 15.12 4.6304C16.0944 5.05067 16.9411 5.62053 17.66 6.34C18.3789 7.05947 18.9491 7.90613 19.3704 8.88C19.7917 9.85387 20.0016 10.8939 20 12C19.9984 13.1061 19.7883 14.1461 19.3696 15.12C18.9509 16.0939 18.3811 16.9405 17.66 17.66C16.9389 18.3795 16.0923 18.9496 15.12 19.3704C14.1477 19.7912 13.1077 20.0011 12 20Z" fill="#333333"/>
</g>
<defs>
<clipPath id="clip0_142_14748">
<rect width="24" height="24" fill="white"/>
</clipPath>
</defs>
</svg>
