<svg width="24" height="24" viewBox="0 0 24 24" fill="none" xmlns="http://www.w3.org/2000/svg">
<g clip-path="url(#clip0_142_14752)">
<path d="M13.0016 12.7643C12.6121 12.2165 12.0979 11.8362 11.4591 11.6235C10.8203 11.4107 10.1598 11.304 9.47767 11.3036C8.79552 11.3031 8.13503 11.4097 7.49621 11.6235C6.8574 11.8372 6.34323 12.2175 5.9537 12.7643H13.0016ZM9.47767 9.84285C10.0376 9.84285 10.6068 9.91296 11.1852 10.0532C11.7637 10.1934 12.2993 10.4094 12.792 10.701C13.2848 10.9927 13.7076 11.3578 14.0606 11.7965C14.4137 12.2352 14.651 12.7526 14.7727 13.3486C14.8214 13.5798 14.7727 13.7836 14.6267 13.9599C14.4806 14.1361 14.2919 14.2245 14.0606 14.225H4.89469C4.66341 14.225 4.47473 14.1366 4.32866 13.9599C4.18259 13.7831 4.1339 13.5793 4.18259 13.3486C4.30432 12.7521 4.54485 12.2348 4.90418 11.7965C5.26352 11.3583 5.68956 10.9932 6.1823 10.701C6.67505 10.4089 7.20748 10.1927 7.77959 10.0525C8.3517 9.91223 8.91773 9.84236 9.47767 9.84285ZM4.73036 17.1464C4.52342 17.1464 4.35009 17.0763 4.21034 16.9361C4.0706 16.7958 4.00049 16.6225 4 16.416C3.99952 16.2096 4.06963 16.0363 4.21034 15.896C4.35106 15.7558 4.5244 15.6857 4.73036 15.6857H14.225C14.4319 15.6857 14.6055 15.7558 14.7457 15.896C14.8859 16.0363 14.9558 16.2096 14.9553 16.416C14.9548 16.6225 14.8847 16.7961 14.745 16.9368C14.6052 17.0775 14.4319 17.1474 14.225 17.1464H4.73036ZM17.6576 20.0678H17.1464C16.9395 20.0678 16.7661 19.9977 16.6264 19.8575C16.4866 19.7172 16.4165 19.5439 16.416 19.3375C16.4156 19.131 16.4857 18.9577 16.6264 18.8175C16.7671 18.6772 16.9404 18.6071 17.1464 18.6071H17.4385L18.461 8.38213H12.18C11.973 8.38213 11.7997 8.31202 11.66 8.17179C11.5202 8.03156 11.4501 7.85823 11.4496 7.65178C11.4491 7.44533 11.5193 7.27199 11.66 7.13177C11.8007 6.99154 11.974 6.92142 12.18 6.92142H14.9553V4.73036C14.9553 4.52342 15.0254 4.35009 15.1657 4.21034C15.3059 4.0706 15.4792 4.00049 15.6857 4C15.8921 3.99952 16.0657 4.06963 16.2064 4.21034C16.3471 4.35106 16.417 4.5244 16.416 4.73036V6.92142H19.2644C19.4835 6.92142 19.6661 7.00055 19.8122 7.15879C19.9583 7.31703 20.0191 7.50571 19.9948 7.72481L18.8627 19.0088C18.8262 19.3131 18.6923 19.5658 18.461 19.7669C18.2298 19.968 17.962 20.0683 17.6576 20.0678ZM4.73036 20.0678C4.52342 20.0678 4.35009 19.9977 4.21034 19.8575C4.0706 19.7172 4.00049 19.5439 4 19.3375C3.99952 19.131 4.06963 18.9577 4.21034 18.8175C4.35106 18.6772 4.5244 18.6071 4.73036 18.6071H14.225C14.4319 18.6071 14.6055 18.6772 14.7457 18.8175C14.8859 18.9577 14.9558 19.131 14.9553 19.3375C14.9548 19.5439 14.8847 19.7175 14.745 19.8582C14.6052 19.9989 14.4319 20.0688 14.225 20.0678H4.73036Z" fill="#333333"/>
</g>
<defs>
<clipPath id="clip0_142_14752">
<rect width="24" height="24" fill="white"/>
</clipPath>
</defs>
</svg>
