<svg width="24" height="24" viewBox="0 0 24 24" fill="none" xmlns="http://www.w3.org/2000/svg">
<g clip-path="url(#clip0_142_14569)">
<path d="M13.325 13C12.7917 12.25 12.0877 11.7293 11.213 11.438C10.3383 11.1467 9.434 11.0007 8.5 11C7.566 10.9993 6.66167 11.1453 5.787 11.438C4.91234 11.7307 4.20834 12.2513 3.675 13H13.325ZM8.5 9C9.26667 9 10.046 9.096 10.838 9.288C11.63 9.48 12.3633 9.77567 13.038 10.175C13.7127 10.5743 14.2917 11.0743 14.775 11.675C15.2583 12.2757 15.5833 12.984 15.75 13.8C15.8167 14.1167 15.75 14.3957 15.55 14.637C15.35 14.8783 15.0917 14.9993 14.775 15H2.225C1.90834 15 1.65 14.879 1.45 14.637C1.25 14.395 1.18334 14.116 1.25 13.8C1.41667 12.9833 1.746 12.275 2.238 11.675C2.73 11.075 3.31334 10.575 3.988 10.175C4.66267 9.775 5.39167 9.479 6.175 9.287C6.95834 9.095 7.73334 8.99934 8.5 9ZM2 19C1.71667 19 1.47934 18.904 1.288 18.712C1.09667 18.52 1.00067 18.2827 1 18C0.999337 17.7173 1.09534 17.48 1.288 17.288C1.48067 17.096 1.718 17 2 17H15C15.2833 17 15.521 17.096 15.713 17.288C15.905 17.48 16.0007 17.7173 16 18C15.9993 18.2827 15.9033 18.5203 15.712 18.713C15.5207 18.9057 15.2833 19.0013 15 19H2ZM19.7 23H19C18.7167 23 18.4793 22.904 18.288 22.712C18.0967 22.52 18.0007 22.2827 18 22C17.9993 21.7173 18.0953 21.48 18.288 21.288C18.4807 21.096 18.718 21 19 21H19.4L20.8 7H12.2C11.9167 7 11.6793 6.904 11.488 6.712C11.2967 6.52 11.2007 6.28267 11.2 6C11.1993 5.71734 11.2953 5.48 11.488 5.288C11.6807 5.096 11.918 5 12.2 5H16V2C16 1.71667 16.096 1.47934 16.288 1.288C16.48 1.09667 16.7173 1.00067 17 1C17.2827 0.999337 17.5203 1.09534 17.713 1.288C17.9057 1.48067 18.0013 1.718 18 2V5H21.9C22.2 5 22.45 5.10834 22.65 5.325C22.85 5.54167 22.9333 5.8 22.9 6.1L21.35 21.55C21.3 21.9667 21.1167 22.3127 20.8 22.588C20.4833 22.8633 20.1167 23.0007 19.7 23ZM2 23C1.71667 23 1.47934 22.904 1.288 22.712C1.09667 22.52 1.00067 22.2827 1 22C0.999337 21.7173 1.09534 21.48 1.288 21.288C1.48067 21.096 1.718 21 2 21H15C15.2833 21 15.521 21.096 15.713 21.288C15.905 21.48 16.0007 21.7173 16 22C15.9993 22.2827 15.9033 22.5203 15.712 22.713C15.5207 22.9057 15.2833 23.0013 15 23H2Z" fill="#333333"/>
</g>
<defs>
<clipPath id="clip0_142_14569">
<rect width="24" height="24" fill="white"/>
</clipPath>
</defs>
</svg>
