<svg width="24" height="24" viewBox="0 0 24 24" fill="none" xmlns="http://www.w3.org/2000/svg">
<g clip-path="url(#clip0_142_14832)">
<path d="M11.5791 19.1579C10.1004 19.1624 8.67406 18.6109 7.58291 17.613C6.49177 16.615 5.81554 15.2434 5.68836 13.7702C5.56118 12.297 5.99232 10.8298 6.89629 9.65957C7.80025 8.48937 9.11101 7.70164 10.5686 7.45263C15.3686 6.52632 16.6317 6.08842 18.316 4C19.1581 5.68421 20.0002 7.52 20.0002 10.7368C20.0002 15.3684 15.9749 19.1579 11.5791 19.1579Z" stroke="#333333" stroke-width="1.68421" stroke-linecap="round" stroke-linejoin="round"/>
<path d="M4 20.0008C4 17.4745 5.55789 15.4871 8.27789 14.9482C10.3158 14.544 12.4211 13.264 13.2632 12.4219" stroke="#333333" stroke-width="1.68421" stroke-linecap="round" stroke-linejoin="round"/>
</g>
<defs>
<clipPath id="clip0_142_14832">
<rect width="24" height="24" fill="white"/>
</clipPath>
</defs>
</svg>
