<svg width="24" height="24" viewBox="0 0 24 24" fill="none" xmlns="http://www.w3.org/2000/svg">
<g clip-path="url(#clip0_142_14750)">
<path d="M6 17.5714V8.14286C6 7.67143 6.168 7.268 6.504 6.93257C6.84 6.59714 7.24343 6.42914 7.71429 6.42857H9.42857V3.85714C9.42857 3.61429 9.51086 3.41086 9.67543 3.24686C9.84 3.08286 10.0434 3.00057 10.2857 3H13.7143C13.9571 3 14.1609 3.08229 14.3254 3.24686C14.49 3.41143 14.572 3.61486 14.5714 3.85714V6.42857H16.2857C16.7571 6.42857 17.1609 6.59657 17.4969 6.93257C17.8329 7.26857 18.0006 7.672 18 8.14286V17.5714C18 18.0429 17.8323 18.4466 17.4969 18.7826C17.1614 19.1186 16.7577 19.2863 16.2857 19.2857C16.2857 19.5286 16.2034 19.7323 16.0389 19.8969C15.8743 20.0614 15.6709 20.1434 15.4286 20.1429C15.2 20.1429 15.0394 20.0391 14.9469 19.8317C14.8543 19.6243 14.7291 19.4423 14.5714 19.2857H9.42857C9.42857 19.5286 9.34629 19.7323 9.18171 19.8969C9.01714 20.0614 8.81371 20.1434 8.57143 20.1429C8.34286 20.1429 8.18229 20.0391 8.08971 19.8317C7.99714 19.6243 7.872 19.4423 7.71429 19.2857C7.24286 19.2857 6.83943 19.118 6.504 18.7826C6.16857 18.4471 6.00057 18.0434 6 17.5714ZM11.1429 6.42857H12.8571V4.71429H11.1429V6.42857ZM12 11.5714C12.7571 11.5714 13.4966 11.4751 14.2183 11.2826C14.94 11.09 15.6291 10.8006 16.2857 10.4143V8.14286H7.71429V10.4143C8.37143 10.8 9.06086 11.0894 9.78257 11.2826C10.5043 11.4757 11.2434 11.572 12 11.5714ZM11.1429 13.2857V13.2429C10.5429 13.1714 9.95714 13.0643 9.38571 12.9214C8.81429 12.7786 8.25714 12.5857 7.71429 12.3429V17.5714H16.2857V12.3429C15.7429 12.5857 15.1857 12.7786 14.6143 12.9214C14.0429 13.0643 13.4571 13.1714 12.8571 13.2429V13.2857C12.8571 13.5286 12.7749 13.7323 12.6103 13.8969C12.4457 14.0614 12.2423 14.1434 12 14.1429C11.7577 14.1423 11.5543 14.06 11.3897 13.896C11.2251 13.732 11.1429 13.5286 11.1429 13.2857Z" fill="#333333"/>
</g>
<defs>
<clipPath id="clip0_142_14750">
<rect width="24" height="24" fill="white"/>
</clipPath>
</defs>
</svg>
