<svg width="24" height="24" viewBox="0 0 24 24" fill="none" xmlns="http://www.w3.org/2000/svg">
<g clip-path="url(#clip0_142_14754)">
<path d="M9.56562 15.4656L16.7969 13.5562C17 13.5021 17.1525 13.377 17.2543 13.1809C17.3561 12.9848 17.3797 12.7849 17.325 12.5812C17.2703 12.3776 17.1519 12.2254 16.9699 12.1246C16.7879 12.0239 16.5948 12 16.3906 12.0531L14.4 12.5812L11.15 9.53437L10.0125 9.81875L11.9625 13.2312L10.0125 13.7187L8.99687 12.9469L8.225 13.15L9.56562 15.4656ZM18.625 19H5.625C5.17812 19 4.79571 18.841 4.47775 18.5231C4.15979 18.2051 4.00054 17.8224 4 17.375V14.125C4.44687 14.125 4.82956 13.966 5.14806 13.6481C5.46656 13.3301 5.62554 12.9474 5.625 12.5C5.62446 12.0526 5.46548 11.6702 5.14806 11.3527C4.83065 11.0353 4.44796 10.8761 4 10.875V7.625C4 7.17812 4.15925 6.79571 4.47775 6.47775C4.79625 6.15979 5.17867 6.00054 5.625 6H18.625C19.0719 6 19.4546 6.15925 19.7731 6.47775C20.0916 6.79625 20.2505 7.17867 20.25 7.625V17.375C20.25 17.8219 20.091 18.2046 19.7731 18.5231C19.4551 18.8416 19.0724 19.0005 18.625 19ZM18.625 17.375V7.625H5.625V9.69687C6.12604 9.99479 6.52227 10.391 6.81369 10.8856C7.1051 11.3801 7.25054 11.9182 7.25 12.5C7.24946 13.0817 7.10402 13.6202 6.81369 14.1152C6.52335 14.6103 6.12712 15.0063 5.625 15.3031V17.375H18.625Z" fill="#333333"/>
</g>
<defs>
<clipPath id="clip0_142_14754">
<rect width="24" height="24" fill="white"/>
</clipPath>
</defs>
</svg>
