<svg width="24" height="24" viewBox="0 0 24 24" fill="none" xmlns="http://www.w3.org/2000/svg">
<path d="M7.77507 15.0494C8.03543 15.2351 8.34734 15.3348 8.66715 15.3345C8.98697 15.3342 9.2987 15.2339 9.5587 15.0477C9.81861 14.8534 10.0162 14.5874 10.1271 14.2824L10.7056 12.5035C10.8443 12.0844 11.079 11.7035 11.391 11.3912C11.703 11.0788 12.0836 10.8437 12.5025 10.7046L14.3128 10.116C14.6164 10.0071 14.8781 9.80556 15.0609 9.5398C15.2437 9.27404 15.3384 8.95754 15.3316 8.63503C15.3248 8.31252 15.2168 8.00031 15.0229 7.74252C14.8291 7.48472 14.5591 7.29439 14.2512 7.19841L12.4692 6.62155C12.0498 6.483 11.6687 6.24834 11.3561 5.9363C11.0435 5.62425 10.8082 5.24345 10.6689 4.82429L10.0805 3.01702C9.97367 2.71857 9.77705 2.46055 9.51765 2.27843C9.25825 2.09631 8.94881 1.99905 8.63188 2.00001C8.31042 1.99865 7.99665 2.09835 7.73492 2.28503C7.47319 2.47171 7.27673 2.73593 7.1733 3.04036L6.57987 4.85763C6.44052 5.26437 6.21098 5.63432 5.90846 5.93978C5.60593 6.24525 5.23824 6.47832 4.83291 6.62155L3.02594 7.20675C2.72407 7.31344 2.46299 7.51167 2.2791 7.7738C2.09521 8.03593 1.99766 8.34891 2.00004 8.66912C2.00243 8.98933 2.10463 9.30082 2.29241 9.56018C2.48018 9.81955 2.74418 10.0139 3.04761 10.116L4.82624 10.6946C5.24617 10.8349 5.62764 11.0711 5.94042 11.3845C6.2532 11.6979 6.48869 12.0799 6.62821 12.5002L7.21498 14.3008C7.31999 14.6009 7.51669 14.8626 7.77674 15.0477M5.34466 9.10238L3.91942 8.66056L5.35966 8.19207C6.01741 7.96542 6.61367 7.58934 7.10162 7.09338C7.58837 6.59321 7.9551 5.99301 8.17514 5.33279L8.61688 3.90065L9.08362 5.33779C9.30468 6.0049 9.67883 6.61097 10.1761 7.10748C10.6734 7.60399 11.2801 7.97715 11.9474 8.19707L13.4144 8.64556L11.9808 9.11238C11.3129 9.3328 10.7059 9.70672 10.2085 10.2041C9.71121 10.7016 9.33735 11.3086 9.11696 11.9767L8.67522 13.4055L8.21014 11.9733C7.99026 11.3042 7.61645 10.696 7.11877 10.1977C6.62109 9.69932 6.01343 9.32308 5.34466 9.10238ZM16.2248 21.7533C16.4512 21.9142 16.7222 22.0005 17 22C17.2799 21.9972 17.552 21.9074 17.7786 21.7431C18.0053 21.5789 18.1753 21.3482 18.2652 21.083L18.6786 19.8126C18.7669 19.5492 18.9169 19.3074 19.112 19.1107C19.307 18.914 19.5487 18.7656 19.8121 18.6789L21.099 18.2588C21.3652 18.1675 21.5956 17.9943 21.7574 17.7641C21.9193 17.5338 22.0041 17.2583 21.9998 16.9769C21.9956 16.6955 21.9025 16.4227 21.7338 16.1974C21.5651 15.9722 21.3294 15.8061 21.0606 15.7229L19.7871 15.3078C19.5238 15.2196 19.2845 15.0716 19.0878 14.8755C18.8912 14.6794 18.7425 14.4405 18.6536 14.1774L18.2335 12.887C18.1431 12.622 17.9717 12.3921 17.7434 12.23C17.5151 12.0679 17.2416 11.9818 16.9617 11.9838C16.6817 11.9858 16.4095 12.0759 16.1836 12.2413C15.9577 12.4067 15.7896 12.639 15.7031 12.9053L15.2913 14.1757C15.2064 14.4369 15.0624 14.6749 14.8704 14.8713C14.6784 15.0677 14.4437 15.217 14.1845 15.3078L12.8909 15.7296C12.6951 15.7977 12.5179 15.9105 12.3733 16.059C12.2287 16.2076 12.1207 16.3879 12.0579 16.5855C11.9952 16.7831 11.9793 16.9926 12.0116 17.1974C12.0439 17.4022 12.1236 17.5966 12.2442 17.7653C12.4092 17.9987 12.6426 18.1737 12.9109 18.2654L14.1828 18.6772C14.447 18.7663 14.6869 18.9155 14.8836 19.1131C15.0803 19.3107 15.2285 19.5513 15.3163 19.8159L15.7381 21.1064C15.8294 21.3672 15.9995 21.5933 16.2248 21.7533ZM14.7012 17.0967L14.4045 16.9983L14.7112 16.8916C15.2167 16.7166 15.6752 16.4275 16.051 16.0467C16.4268 15.6659 16.7099 15.2037 16.8783 14.6959L16.975 14.3991L17.075 14.7009C17.2452 15.2119 17.532 15.6762 17.9128 16.057C18.2936 16.4379 18.7578 16.7248 19.2687 16.895L19.5937 17L19.2937 17.0984C18.7816 17.2692 18.3164 17.5573 17.9353 17.9396C17.5542 18.322 17.2676 18.7881 17.0983 19.3008L17 19.6025L16.9033 19.3008C16.7349 18.7866 16.4481 18.3192 16.0658 17.9363C15.6836 17.5535 15.2167 17.2659 14.7029 17.0967" fill="#514942"/>
</svg>
