<svg width="24" height="24" viewBox="0 0 24 24" fill="none" xmlns="http://www.w3.org/2000/svg">
<path fill-rule="evenodd" clip-rule="evenodd" d="M3.01 9.94C3.01 7.15 5.45 5 8.31 5C9.78 5 11.08 5.7 12.01 6.6C12.94 5.7 14.24 5 15.71 5C18.57 5 21.01 7.15 21.01 9.94C21.01 11.85 20.2 13.54 19.07 14.96C17.95 16.38 16.48 17.58 15.08 18.56C14.54 18.93 14 19.28 13.5 19.53C13.03 19.77 12.5 19.99 12.01 19.99C11.52 19.99 10.99 19.77 10.52 19.53C9.97 19.24 9.45 18.91 8.94 18.56C7.53 17.58 6.07 16.38 4.94 14.96C3.82 13.54 3 11.85 3 9.94H3.01ZM8.49 6.84C6.45 6.84 4.92 8.35 4.92 10.07C4.92 11.45 5.5 12.74 6.44 13.93C7.38 15.12 8.65 16.17 9.93 17.06C10.41 17.4 10.87 17.68 11.26 17.88C11.68 18.09 11.92 18.15 12.01 18.15C12.1 18.15 12.34 18.09 12.76 17.87C13.22 17.63 13.67 17.35 14.09 17.05C15.37 16.16 16.64 15.11 17.58 13.92C18.52 12.73 19.1 11.44 19.1 10.06C19.1 8.34 17.56 6.83 15.53 6.83C14.36 6.83 13.27 7.53 12.59 8.42C12.52 8.51 12.43 8.58 12.33 8.63C12.23 8.68 12.12 8.71 12.01 8.71C11.9 8.71 11.79 8.68 11.69 8.63C11.59 8.58 11.5 8.51 11.43 8.42C10.75 7.53 9.66 6.83 8.49 6.83V6.84Z" fill="#514942"/>
</svg>
