<svg width="129" height="129" viewBox="0 0 129 129" fill="none" xmlns="http://www.w3.org/2000/svg">
<rect width="128" height="128" transform="translate(0.193848 0.900391)" fill="#F4F3F2"/>
<path d="M34.3936 59.325C34.3936 59.325 38.6988 30.1408 45.5936 31.1671C51.083 31.1408 51.8988 47.7144 51.8988 47.7144L82.2883 49.4039C82.2883 49.4039 86.483 31.1408 90.9778 32.0723C96.7725 32.125 99.6883 52.7302 101.578 66.5408C102.962 76.6829 102.309 99.1355 102.309 99.1355" stroke="#D2CDC9" stroke-width="6.16842" stroke-linecap="round"/>
<path d="M98.7128 68.1257C100.744 70.3783 101.586 73.5467 101.086 77.0204C100.586 80.4941 98.7391 84.1415 95.576 87.052C92.4181 89.9625 88.6549 91.4836 85.1865 91.6678C81.7233 91.852 78.6812 90.7099 76.6496 88.452C74.6181 86.1994 73.776 83.0309 74.276 79.5573C74.776 76.0836 76.6233 72.4362 79.7865 69.5257C82.9444 66.6152 86.7075 65.0941 90.176 64.9099C93.6391 64.7257 96.6812 65.8678 98.7128 68.1257Z" stroke="#D2CDC9" stroke-width="4.11053"/>
<path d="M70.0775 67.1096C72.1828 69.4412 73.0354 72.757 72.4617 76.4149C71.8881 80.0781 69.8986 83.936 66.5302 87.0412C63.1617 90.1412 59.1723 91.7886 55.5144 92.0254C51.8565 92.2623 48.6723 91.0939 46.567 88.7623C44.4617 86.4307 43.6091 83.1149 44.1828 79.457C44.7565 75.7939 46.746 71.936 50.1144 68.8307C53.4828 65.7307 57.467 64.0833 61.1302 63.8465C64.7881 63.6096 67.9723 64.7781 70.0775 67.1096Z" stroke="#D2CDC9" stroke-width="4.11053"/>
<path d="M73.0182 80.763C72.4339 83.5314 70.7971 86.2683 68.4129 88.463C66.0234 90.663 63.1708 92.063 60.3813 92.3946C59.955 92.442 59.5392 92.4683 59.1392 92.4683C56.9234 92.4683 55.0445 91.7157 53.7603 90.2946C52.255 88.6209 51.7392 86.1946 52.3129 83.4683C52.9024 80.6999 54.5339 77.963 56.9234 75.763C59.3129 73.563 62.1603 72.1683 64.9497 71.8367C67.7076 71.5051 70.055 72.2525 71.5708 73.9367C73.0813 75.6104 73.5971 78.0314 73.0182 80.763Z" fill="#D2CDC9"/>
<path d="M101.32 79.8349C101.32 80.4928 101.246 81.177 101.099 81.8823C100.536 84.5612 98.9517 87.2138 96.6412 89.3402C94.3306 91.4717 91.5675 92.8244 88.8675 93.1454C88.457 93.1928 88.0517 93.2191 87.6622 93.2191C85.5149 93.2191 83.6991 92.4875 82.4622 91.1138C80.9991 89.4928 80.5043 87.1507 81.0622 84.5086C81.6254 81.8296 83.2096 79.1823 85.5201 77.0507C87.8306 74.9191 90.5938 73.5717 93.2938 73.2507C95.957 72.9349 98.2359 73.6507 99.6991 75.277C100.773 76.4612 101.32 78.0402 101.32 79.8349Z" fill="#D2CDC9"/>
<path d="M101.377 72.5752C104.387 69.4436 107.477 68.312 111.277 69.9647" stroke="#D2CDC9" stroke-width="4.11053" stroke-linecap="round"/>
<path d="M37.4193 76.0722C30.9825 71.5985 25.1141 71.1827 16.772 75.6985" stroke="#D2CDC9" stroke-width="4.11053" stroke-linecap="round"/>
<path d="M99.7798 78.6391C103.296 76.8286 106.648 78.3444 111.611 84.918" stroke="#D2CDC9" stroke-width="4.11053" stroke-linecap="round"/>
<path d="M36.3474 83.9914C29.9263 82.3388 25.1 83.0072 19.0474 88.0757" stroke="#D2CDC9" stroke-width="4.11053" stroke-linecap="round"/>
</svg>
