<svg width="24" height="24" viewBox="0 0 24 24" fill="none" xmlns="http://www.w3.org/2000/svg">
<g clip-path="url(#clip0_231_12834)">
<path d="M15.2083 15.2077L17.8333 17.8327M16.6667 11.416C16.6667 10.0236 16.1135 8.68827 15.129 7.70371C14.1444 6.71914 12.8091 6.16602 11.4167 6.16602C10.0243 6.16602 8.68893 6.71914 7.70436 7.70371C6.7198 8.68827 6.16667 10.0236 6.16667 11.416C6.16667 12.8084 6.7198 14.1438 7.70436 15.1283C8.68893 16.1129 10.0243 16.666 11.4167 16.666C12.8091 16.666 14.1444 16.1129 15.129 15.1283C16.1135 14.1438 16.6667 12.8084 16.6667 11.416Z" stroke="white" stroke-width="1.5" stroke-linecap="round" stroke-linejoin="round"/>
</g>
<defs>
<clipPath id="clip0_231_12834">
<rect width="14" height="14" fill="white" transform="translate(5 5)"/>
</clipPath>
</defs>
</svg>
