<svg width="25" height="24" viewBox="0 0 25 24" fill="none" xmlns="http://www.w3.org/2000/svg">
<path d="M3.90625 7C3.90625 6.80109 3.98856 6.61032 4.13507 6.46967C4.28159 6.32902 4.4803 6.25 4.6875 6.25H20.3125C20.5197 6.25 20.7184 6.32902 20.8649 6.46967C21.0114 6.61032 21.0938 6.80109 21.0938 7C21.0938 7.19891 21.0114 7.38968 20.8649 7.53033C20.7184 7.67098 20.5197 7.75 20.3125 7.75H4.6875C4.4803 7.75 4.28159 7.67098 4.13507 7.53033C3.98856 7.38968 3.90625 7.19891 3.90625 7ZM6.51042 12C6.51042 11.8011 6.59273 11.6103 6.73924 11.4697C6.88575 11.329 7.08447 11.25 7.29167 11.25H17.7083C17.9155 11.25 18.1142 11.329 18.2608 11.4697C18.4073 11.6103 18.4896 11.8011 18.4896 12C18.4896 12.1989 18.4073 12.3897 18.2608 12.5303C18.1142 12.671 17.9155 12.75 17.7083 12.75H7.29167C7.08447 12.75 6.88575 12.671 6.73924 12.5303C6.59273 12.3897 6.51042 12.1989 6.51042 12ZM9.63542 17C9.63542 16.8011 9.71773 16.6103 9.86424 16.4697C10.0108 16.329 10.2095 16.25 10.4167 16.25H14.5833C14.7905 16.25 14.9892 16.329 15.1358 16.4697C15.2823 16.6103 15.3646 16.8011 15.3646 17C15.3646 17.1989 15.2823 17.3897 15.1358 17.5303C14.9892 17.671 14.7905 17.75 14.5833 17.75H10.4167C10.2095 17.75 10.0108 17.671 9.86424 17.5303C9.71773 17.3897 9.63542 17.1989 9.63542 17Z" fill="#0051FF"/>
</svg>
