<?xml version="1.0" encoding="UTF-8"?>
<svg id="Layer_2" data-name="Layer 2" xmlns="http://www.w3.org/2000/svg" viewBox="0 0 188 140.9">
  <defs>
    <style>
      .cls-1, .cls-2 {
        stroke-width: 7.81px;
      }

      .cls-1, .cls-2, .cls-3 {
        fill: none;
        stroke: #fe5500;
      }

      .cls-2, .cls-3 {
        stroke-linecap: round;
      }

      .cls-3 {
        stroke-width: 11.72px;
      }

      .cls-4 {
        fill: #fe5500;
      }
    </style>
  </defs>
  <g id="Layer_1-2" data-name="Layer 1">
    <path class="cls-3" d="M37.38,59.41S45.56,3.96,58.66,5.91c10.43-.05,11.98,31.44,11.98,31.44l57.74,3.21s7.97-34.7,16.51-32.93c11.01.1,16.55,39.25,20.14,65.49,2.63,19.27,1.39,61.93,1.39,61.93"/>
    <path class="cls-1" d="M159.59,76.13c3.86,4.28,5.46,10.3,4.51,16.9-.95,6.6-4.46,13.53-10.47,19.06-6,5.53-13.15,8.42-19.74,8.77-6.58.35-12.36-1.82-16.22-6.11-3.86-4.28-5.46-10.3-4.51-16.9.95-6.6,4.46-13.53,10.47-19.06,6-5.53,13.15-8.42,19.74-8.77,6.58-.35,12.36,1.82,16.22,6.11Z"/>
    <path class="cls-1" d="M105.18,74.2c4,4.43,5.62,10.73,4.53,17.68-1.09,6.96-4.87,14.29-11.27,20.19-6.4,5.89-13.98,9.02-20.93,9.47-6.95.45-13-1.77-17-6.2-4-4.43-5.62-10.73-4.53-17.68,1.09-6.96,4.87-14.29,11.27-20.19,6.4-5.89,13.97-9.02,20.93-9.47,6.95-.45,13,1.77,17,6.2Z"/>
    <path class="cls-4" d="M110.77,100.14c-1.11,5.26-4.22,10.46-8.75,14.63-4.54,4.18-9.96,6.84-15.26,7.47-.81.09-1.6.14-2.36.14-4.21,0-7.78-1.43-10.22-4.13-2.86-3.18-3.84-7.79-2.75-12.97,1.12-5.26,4.22-10.46,8.76-14.64s9.95-6.83,15.25-7.46c5.24-.63,9.7.79,12.58,3.99,2.87,3.18,3.85,7.78,2.75,12.97Z"/>
    <path class="cls-4" d="M164.54,98.37c0,1.25-.14,2.55-.42,3.89-1.07,5.09-4.08,10.13-8.47,14.17-4.39,4.05-9.64,6.62-14.77,7.23-.78.09-1.55.14-2.29.14-4.08,0-7.53-1.39-9.88-4-2.78-3.08-3.72-7.53-2.66-12.55,1.07-5.09,4.08-10.12,8.47-14.17s9.64-6.61,14.77-7.22c5.06-.6,9.39.76,12.17,3.85,2.04,2.25,3.08,5.25,3.08,8.66Z"/>
    <path class="cls-2" d="M164.65,84.58c5.72-5.95,11.59-8.1,18.81-4.96"/>
    <path class="cls-2" d="M43.13,91.23c-12.23-8.5-23.38-9.29-39.23-.71"/>
    <path class="cls-2" d="M161.61,96.11c6.68-3.44,13.05-.56,22.48,11.93"/>
    <path class="cls-2" d="M41.09,106.28c-12.2-3.14-21.37-1.87-32.87,7.76"/>
  </g>
</svg>