<svg width="24" height="24" viewBox="0 0 24 24" fill="none" xmlns="http://www.w3.org/2000/svg">
<path d="M3.20801 11.7493C3.20801 8.52808 3.20801 6.91745 4.20873 5.91673C5.20944 4.91602 6.82008 4.91602 10.0413 4.91602H13.458C16.6793 4.91602 18.2899 4.91602 19.2906 5.91673C20.2913 6.91745 20.2913 8.52808 20.2913 11.7493V13.4577C20.2913 16.6789 20.2913 18.2896 19.2906 19.2903C18.2899 20.291 16.6793 20.291 13.458 20.291H10.0413C6.82008 20.291 5.20944 20.291 4.20873 19.2903C3.20801 18.2896 3.20801 16.6789 3.20801 13.4577V11.7493Z" stroke="currentColor" stroke-width="1.875"/>
<path d="M7.47949 4.91699V3.63574" stroke="currentColor" stroke-width="1.875" stroke-linecap="round"/>
<path d="M16.0215 4.91699V3.63574" stroke="currentColor" stroke-width="1.875" stroke-linecap="round"/>
<path d="M3.63574 9.1875H19.8649" stroke="currentColor" stroke-width="1.875" stroke-linecap="round"/>
</svg>
