<svg width="25" height="24" viewBox="0 0 25 24" fill="none" xmlns="http://www.w3.org/2000/svg">
<path d="M14.9375 17.6875C14.9375 18.334 14.6807 18.9539 14.2236 19.4111C13.7665 19.8682 13.1465 20.125 12.5 20.125C11.8536 20.125 11.2336 19.8682 10.7765 19.4111C10.3193 18.9539 10.0625 18.334 10.0625 17.6875M13.0858 6.31495L11.8947 6.31251C9.17773 6.30601 6.81904 8.51357 6.80036 11.1875V14.2669C6.80036 14.9088 6.71911 15.5352 6.36892 16.069L6.13573 16.4249C5.78067 16.9644 6.16254 17.6875 6.80036 17.6875H18.1997C18.8375 17.6875 19.2186 16.9644 18.8643 16.4249L18.6311 16.069C18.2818 15.5352 18.1997 14.9079 18.1997 14.2661V11.1883C18.1672 8.51357 15.8028 6.32145 13.0858 6.31495Z" stroke="#808080" stroke-width="1.5" stroke-linecap="round" stroke-linejoin="round"/>
<path d="M12.5 3.875C12.931 3.875 13.3443 4.0462 13.649 4.35095C13.9538 4.6557 14.125 5.06902 14.125 5.5V6.3125H10.875V5.5C10.875 5.06902 11.0462 4.6557 11.351 4.35095C11.6557 4.0462 12.069 3.875 12.5 3.875Z" stroke="#808080" stroke-width="1.5" stroke-linecap="round" stroke-linejoin="round"/>
</svg>
