<svg width="24" height="24" viewBox="0 0 24 24" fill="none" xmlns="http://www.w3.org/2000/svg">
<g clip-path="url(#clip0_258_17485)">
<path fill-rule="evenodd" clip-rule="evenodd" d="M15.2725 9.54421C15.2725 10.4122 14.9277 11.2446 14.3139 11.8584C13.7002 12.4721 12.8678 12.8169 11.9998 12.8169C11.1318 12.8169 10.2994 12.4721 9.68561 11.8584C9.07185 11.2446 8.72705 10.4122 8.72705 9.54421C8.72705 8.67623 9.07185 7.8438 9.68561 7.23004C10.2994 6.61629 11.1318 6.27148 11.9998 6.27148C12.8678 6.27148 13.7002 6.61629 14.3139 7.23004C14.9277 7.8438 15.2725 8.67623 15.2725 9.54421ZM13.6361 9.54421C13.6361 9.9782 13.4637 10.3944 13.1569 10.7013C12.85 11.0082 12.4338 11.1806 11.9998 11.1806C11.5658 11.1806 11.1496 11.0082 10.8427 10.7013C10.5358 10.3944 10.3634 9.9782 10.3634 9.54421C10.3634 9.11022 10.5358 8.69401 10.8427 8.38713C11.1496 8.08025 11.5658 7.90785 11.9998 7.90785C12.4338 7.90785 12.85 8.08025 13.1569 8.38713C13.4637 8.69401 13.6361 9.11022 13.6361 9.54421Z" fill="#808080"/>
<path fill-rule="evenodd" clip-rule="evenodd" d="M12 3C7.02955 3 3 7.02955 3 12C3 16.9705 7.02955 21 12 21C16.9705 21 21 16.9705 21 12C21 7.02955 16.9705 3 12 3ZM4.63636 12C4.63636 13.71 5.21973 15.2842 6.19745 16.5344C6.88427 15.6328 7.77013 14.9022 8.78589 14.3995C9.80165 13.8968 10.9198 13.6356 12.0532 13.6364C13.1719 13.6351 14.2762 13.8893 15.2818 14.3796C16.2874 14.8699 17.1678 15.5834 17.8557 16.4656C18.5646 15.5359 19.042 14.4506 19.2482 13.2998C19.4544 12.1489 19.3836 10.9654 19.0417 9.84735C18.6997 8.72926 18.0965 7.70868 17.2818 6.87003C16.4671 6.03139 15.4644 5.39879 14.3567 5.0246C13.249 4.6504 12.0681 4.54536 10.9117 4.71816C9.75534 4.89096 8.65674 5.33664 7.70681 6.01832C6.75688 6.69999 5.98294 7.59808 5.44901 8.63825C4.91508 9.67843 4.63651 10.8308 4.63636 12ZM12 19.3636C10.3096 19.3664 8.67012 18.7848 7.35927 17.7175C7.88684 16.962 8.58916 16.3451 9.40643 15.9195C10.2237 15.4938 11.1317 15.2719 12.0532 15.2727C12.9631 15.2719 13.8602 15.4883 14.6697 15.9038C15.4793 16.3193 16.178 16.922 16.7078 17.6618C15.3868 18.7639 13.7203 19.3663 12 19.3636Z" fill="#808080"/>
</g>
<defs>
<clipPath id="clip0_258_17485">
<rect width="24" height="24" fill="white"/>
</clipPath>
</defs>
</svg>
