<svg width="40" height="40" viewBox="0 0 40 40" fill="none" xmlns="http://www.w3.org/2000/svg">
<path fill-rule="evenodd" clip-rule="evenodd" d="M19.9999 3.33398C22.1886 3.33397 24.3559 3.76506 26.378 4.60263C28.4001 5.44021 30.2374 6.66786 31.785 8.2155C33.3327 9.76314 34.5604 11.6005 35.3979 13.6226C36.2355 15.6447 36.6666 17.8119 36.6666 20.0006C36.6666 29.2054 29.2047 36.6673 19.9999 36.6673C10.7952 36.6673 3.33325 29.2054 3.33325 20.0006C3.33325 10.7959 10.7952 3.33398 19.9999 3.33398ZM21.6666 21.6673H18.3333C14.2071 21.6673 10.6647 24.1663 9.13677 27.7336C11.5543 31.1235 15.519 33.334 19.9999 33.334C24.4808 33.334 28.4455 31.1235 30.8631 27.7334C29.3352 24.1663 25.7928 21.6673 21.6666 21.6673ZM19.9999 9.76256C17.2385 9.76256 14.9999 12.0012 14.9999 14.7626C14.9999 17.524 17.2385 19.7626 19.9999 19.7626C22.7613 19.7626 24.9999 17.524 24.9999 14.7626C24.9999 12.0012 22.7614 9.76256 19.9999 9.76256Z" fill="#B3A8A2"/>
</svg>
