<svg width="24" height="21" viewBox="0 0 24 21" fill="none" xmlns="http://www.w3.org/2000/svg">
<g clip-path="url(#clip0_1_8336)">
<path d="M11.6669 0C5.22317 0 0 4.01649 0 8.97172C0 12.1753 2.18418 14.9893 5.46885 16.5736C5.29048 17.1743 4.32011 20.4402 4.28197 20.6973C4.28197 20.6973 4.25841 20.8899 4.3863 20.9632C4.42909 20.9842 4.47583 20.9966 4.52367 20.9994C4.57151 21.0022 4.61943 20.9955 4.66451 20.9796C5.03247 20.9293 8.92741 18.2651 9.6005 17.8067C10.2852 17.8994 10.9757 17.9451 11.6669 17.9434C18.1106 17.9434 23.3338 13.927 23.3338 8.97172C23.3338 4.01649 18.1106 0 11.6669 0Z" fill="currentColor"/>
</g>
<defs>
<clipPath id="clip0_1_8336">
<rect width="23.3338" height="21" fill="white"/>
</clipPath>
</defs>
</svg>
