<svg width="40" height="40" viewBox="0 0 40 40" fill="none" xmlns="http://www.w3.org/2000/svg">
<path d="M20 3.33398C10.7834 3.33398 3.33337 10.784 3.33337 20.0007C3.33337 29.2173 10.7834 36.6673 20 36.6673C29.2167 36.6673 36.6667 29.2173 36.6667 20.0007C36.6667 10.784 29.2167 3.33398 20 3.33398ZM27.1667 27.1673C27.0125 27.3218 26.8294 27.4444 26.6277 27.528C26.4261 27.6117 26.21 27.6547 25.9917 27.6547C25.7734 27.6547 25.5573 27.6117 25.3557 27.528C25.154 27.4444 24.9709 27.3218 24.8167 27.1673L20 22.3507L15.1834 27.1673C14.8717 27.4789 14.4491 27.654 14.0084 27.654C13.5677 27.654 13.145 27.4789 12.8334 27.1673C12.5217 26.8557 12.3467 26.433 12.3467 25.9923C12.3467 25.7741 12.3897 25.558 12.4732 25.3564C12.5567 25.1548 12.6791 24.9716 12.8334 24.8173L17.65 20.0007L12.8334 15.184C12.5217 14.8724 12.3467 14.4497 12.3467 14.009C12.3467 13.5683 12.5217 13.1456 12.8334 12.834C13.145 12.5224 13.5677 12.3473 14.0084 12.3473C14.4491 12.3473 14.8717 12.5224 15.1834 12.834L20 17.6507L24.8167 12.834C24.971 12.6797 25.1542 12.5573 25.3558 12.4738C25.5574 12.3903 25.7735 12.3473 25.9917 12.3473C26.2099 12.3473 26.426 12.3903 26.6276 12.4738C26.8292 12.5573 27.0124 12.6797 27.1667 12.834C27.321 12.9883 27.4434 13.1715 27.5269 13.3731C27.6104 13.5747 27.6534 13.7908 27.6534 14.009C27.6534 14.2272 27.6104 14.4433 27.5269 14.6449C27.4434 14.8465 27.321 15.0297 27.1667 15.184L22.35 20.0007L27.1667 24.8173C27.8 25.4507 27.8 26.5173 27.1667 27.1673Z" fill="#FF472E"/>
</svg>
