<svg width="280" height="280" viewBox="0 0 280 280" fill="none" xmlns="http://www.w3.org/2000/svg">
<rect width="280" height="280" fill="#F4F3F2"/>
<mask id="mask0_1906_18840" style="mask-type:alpha" maskUnits="userSpaceOnUse" x="0" y="0" width="280" height="280">
<rect width="280" height="280" rx="20" fill="#D9D9D9"/>
</mask>
<g mask="url(#mask0_1906_18840)">
<path d="M137.288 145.475C137.288 145.475 143.326 132.186 145.628 134.355C147.93 136.525 147.217 142.298 147.217 142.298L168.661 144.283C168.661 144.283 170.245 138.344 173.03 135.944C175.815 133.543 177.16 149.09 177.398 157.786C177.573 164.172 175.81 174.068 175.81 174.068C175.81 174.068 186.755 170.975 188.915 175.656C190.293 178.643 187.723 186.378 187.723 186.378C187.723 186.378 180.462 186.378 175.81 186.378C172.553 186.378 167.47 186.378 167.47 186.378V178.039C167.47 178.039 162.705 180.024 157.145 180.024C152.38 180.024 147.614 179.018 147.614 179.018C147.614 179.018 135.924 189.68 135.303 191.541C134.111 195.115 130.934 195.115 130.934 195.115H122.198C122.198 195.115 116.013 195.453 114.256 192.732C112.498 190.012 113.46 188.576 116.638 180.024C119.815 171.473 128.949 162.948 128.949 162.948C128.949 162.948 118.75 156.305 116.638 142.298C115.05 131.761 118.026 122.311 124.581 117.067C131.135 111.822 137.435 110.868 145.628 112.699C152.38 114.207 159.152 120.079 162.705 125.407C169.059 134.938 170.59 139.306 170.59 139.306" stroke="#E5E2DF" stroke-width="4.76551" stroke-linecap="round"/>
<path d="M131.257 113.095C120.138 96.0181 137.595 88.4734 141.186 76.1625C143.965 66.6315 137.955 50.8699 120.084 50.0384C96.0341 48.9194 94.5767 72.6315 94.5767 72.6315" stroke="#E5E2DF" stroke-width="4.76551" stroke-linecap="round"/>
<path d="M175.235 158.885C176.314 160.264 176.63 162.174 176.081 164.271C175.531 166.37 174.127 168.559 171.94 170.272C169.753 171.984 167.29 172.822 165.121 172.852C162.953 172.882 161.174 172.118 160.094 170.739C159.014 169.36 158.699 167.449 159.248 165.351C159.798 163.253 161.202 161.063 163.389 159.351C165.577 157.638 168.039 156.8 170.208 156.77C172.376 156.74 174.155 157.506 175.235 158.885Z" stroke="#E5E2DF" stroke-width="3.177"/>
<path d="M156.951 157.545C158.069 158.972 158.384 160.972 157.777 163.188C157.169 165.404 155.656 167.726 153.321 169.554C150.986 171.382 148.37 172.293 146.073 172.351C143.776 172.409 141.91 171.624 140.792 170.197C139.674 168.769 139.36 166.769 139.967 164.553C140.574 162.337 142.087 160.015 144.422 158.187C146.757 156.359 149.374 155.447 151.671 155.389C153.968 155.332 155.834 156.117 156.951 157.545Z" stroke="#E5E2DF" stroke-width="3.177"/>
<path d="M152.904 162.464C153.479 163.199 153.643 164.332 153.181 165.727C152.722 167.113 151.677 168.616 150.109 169.843C148.541 171.071 146.832 171.725 145.376 171.838C143.91 171.952 142.85 171.521 142.274 170.786C141.699 170.051 141.536 168.919 141.998 167.524C142.458 166.138 143.503 164.635 145.07 163.408C146.638 162.18 148.347 161.526 149.803 161.413C151.269 161.299 152.329 161.729 152.904 162.464Z" fill="#E5E2DF" stroke="#E5E2DF" stroke-width="2.38275"/>
<path d="M170.841 163.975C171.388 164.674 171.547 165.755 171.102 167.099C170.66 168.432 169.654 169.88 168.142 171.064C166.629 172.248 164.982 172.877 163.582 172.986C162.171 173.096 161.159 172.682 160.613 171.984C160.066 171.285 159.906 170.204 160.352 168.86C160.793 167.527 161.8 166.079 163.312 164.895C164.824 163.711 166.471 163.082 167.872 162.973C169.282 162.863 170.294 163.277 170.841 163.975Z" fill="#E5E2DF" stroke="#E5E2DF" stroke-width="2.38275"/>
<path d="M184.535 181.209C184.427 180.338 183.635 179.719 182.764 179.826C181.893 179.934 181.274 180.726 181.381 181.597L184.535 181.209ZM183.718 187.574L185.294 187.38L184.535 181.209L182.958 181.403L181.381 181.597L182.141 187.768L183.718 187.574Z" fill="#E5E2DF"/>
<path d="M179.769 181.209C179.662 180.338 178.869 179.719 177.998 179.826C177.128 179.934 176.509 180.726 176.616 181.597L179.769 181.209ZM178.952 187.574L180.529 187.38L179.769 181.209L178.192 181.403L176.616 181.597L177.375 187.768L178.952 187.574Z" fill="#E5E2DF"/>
<path d="M175.004 181.209C174.897 180.338 174.104 179.719 173.233 179.826C172.362 179.934 171.743 180.726 171.851 181.597L175.004 181.209ZM174.187 187.574L175.763 187.38L175.004 181.209L173.427 181.403L171.851 181.597L172.61 187.768L174.187 187.574Z" fill="#E5E2DF"/>
<path d="M140.789 204.526C146.08 204.49 151.206 206.371 155.218 209.821" stroke="#E5E2DF" stroke-width="3.177" stroke-linecap="round" stroke-linejoin="round"/>
<path d="M141.981 211.014C140.617 212.847 138.891 214.38 136.91 215.519C134.929 216.658 132.735 217.377 130.464 217.632" stroke="#E5E2DF" stroke-width="3.177" stroke-linecap="round" stroke-linejoin="round"/>
<path d="M148.334 213.131C145.706 217.782 141.469 221.313 136.42 223.059" stroke="#E5E2DF" stroke-width="3.177" stroke-linecap="round" stroke-linejoin="round"/>
<path d="M153.498 217.632C152.123 215.81 150.394 214.284 148.415 213.147C146.436 212.009 144.247 211.284 141.981 211.013C140.259 206.768 140.259 202.02 141.981 197.775" stroke="#E5E2DF" stroke-width="3.177" stroke-linecap="round" stroke-linejoin="round"/>
<path d="M134.436 200.158C133.4 205.37 134.294 210.78 136.951 215.381" stroke="#E5E2DF" stroke-width="3.177" stroke-linecap="round" stroke-linejoin="round"/>
<path d="M141.981 224.25C149.292 224.25 155.218 218.324 155.218 211.013C155.218 203.702 149.292 197.775 141.981 197.775C134.67 197.775 128.743 203.702 128.743 211.013C128.743 218.324 134.67 224.25 141.981 224.25Z" stroke="#E5E2DF" stroke-width="3.177" stroke-linecap="round" stroke-linejoin="round"/>
<path d="M136.817 223.1C136.817 223.1 133.269 229.454 121.329 229.454C113.386 229.454 111.798 225.483 103.458 225.483C95.913 225.483 86.779 232.631 81.6163 224.292C77.2216 217.193 83.999 207.612 98.2957 211.584" stroke="#E5E2DF" stroke-width="3.177" stroke-linecap="round"/>
<path d="M178.663 161.422C184.726 156.306 190.475 155.582 198.957 160.053" stroke="#E5E2DF" stroke-width="3.3105" stroke-linecap="round"/>
<path d="M133.892 162.023C126.076 157.55 119.086 157.764 109.337 164.06" stroke="#E5E2DF" stroke-width="3.3105" stroke-linecap="round"/>
<path d="M176.999 165.983C184.635 162.918 191.126 163.877 199.702 170.479" stroke="#E5E2DF" stroke-width="3.3105" stroke-linecap="round"/>
<path d="M133.714 167.481C126.62 162.989 120.619 163.723 112.734 171.506" stroke="#E5E2DF" stroke-width="3.3105" stroke-linecap="round"/>
<path d="M120.988 187.7C120.901 186.79 120.092 186.123 119.182 186.21C118.272 186.297 117.605 187.106 117.693 188.016L120.988 187.7ZM119.878 193.46L121.525 193.302L120.988 187.7L119.34 187.858L117.693 188.016L118.23 193.619L119.878 193.46Z" fill="#E5E2DF"/>
<path d="M125.953 187.7C125.866 186.79 125.057 186.123 124.147 186.21C123.238 186.297 122.571 187.106 122.658 188.016L125.953 187.7ZM124.843 193.46L126.491 193.302L125.953 187.7L124.306 187.858L122.658 188.016L123.195 193.619L124.843 193.46Z" fill="#E5E2DF"/>
<path d="M130.92 187.7C130.832 186.79 130.024 186.123 129.114 186.21C128.204 186.297 127.537 187.106 127.624 188.016L130.92 187.7ZM129.809 193.46L131.457 193.302L130.92 187.7L129.272 187.858L127.624 188.016L128.162 193.619L129.809 193.46Z" fill="#E5E2DF"/>
</g>
</svg>
