<svg width="85" height="127" viewBox="0 0 85 127" fill="none" xmlns="http://www.w3.org/2000/svg">
<path d="M40.3032 67.5002C40.3032 67.5002 44.4454 58.3832 46.0246 59.8717C47.6038 61.3601 47.1144 65.3207 47.1144 65.3207L61.8266 66.6829C61.8266 66.6829 62.9129 62.6082 64.8235 60.9615C66.7341 59.3147 67.6572 69.9806 67.8204 75.9461C67.9403 80.3275 66.7306 87.1164 66.7306 87.1164C66.7306 87.1164 74.2399 84.9946 75.7214 88.2062C76.6669 90.2557 74.9041 95.5623 74.9041 95.5623C74.9041 95.5623 69.9226 95.5623 66.7306 95.5623C64.4963 95.5623 61.0092 95.5623 61.0092 95.5623V89.8409C61.0092 89.8409 57.7399 91.2032 53.9256 91.2032C50.6564 91.2032 47.387 90.5128 47.387 90.5128C47.387 90.5128 39.367 97.8274 38.9412 99.1042C38.1235 101.556 35.9439 101.556 35.9439 101.556H29.9504C29.9504 101.556 25.707 101.788 24.5015 99.9215C23.2959 98.0554 23.9559 97.0698 26.1357 91.2032C28.3155 85.3365 34.5818 79.4879 34.5818 79.4879C34.5818 79.4879 27.585 74.9305 26.1361 65.3207C25.0462 58.0917 27.0879 51.6091 31.5849 48.0111C36.0819 44.4131 40.4039 43.7587 46.0246 45.0142C50.6564 46.0489 55.303 50.0774 57.7399 53.7326C62.0992 60.2713 63.15 63.268 63.15 63.268" stroke="#D2CDC9" stroke-width="3.26938" stroke-linecap="round"/>
<path d="M36.1652 45.286C28.5368 33.5708 40.5132 28.3947 42.9766 19.9488C44.8837 13.41 40.7603 2.59677 28.5001 2.02634C12.0004 1.25866 11.0005 17.5264 11.0005 17.5264" stroke="#D2CDC9" stroke-width="3.26938" stroke-linecap="round"/>
<path d="M66.3366 76.7C67.0773 77.6461 67.2937 78.9567 66.9169 80.3956C66.5398 81.8355 65.5767 83.3375 64.0763 84.5123C62.5758 85.6871 60.886 86.2621 59.3976 86.2827C57.9104 86.3033 56.6899 85.7788 55.9492 84.8327C55.2085 83.8866 54.9921 82.5759 55.3689 81.1371C55.746 79.6971 56.7097 78.1947 58.2102 77.0198C59.7107 75.8452 61.4 75.2706 62.8882 75.2499C64.3754 75.2294 65.5958 75.754 66.3366 76.7Z" stroke="#D2CDC9" stroke-width="2.17959"/>
<path d="M53.7928 75.7808C54.5597 76.7603 54.7752 78.1324 54.3586 79.6527C53.942 81.173 52.9036 82.7651 51.3019 84.0192C49.7002 85.2732 47.9054 85.8993 46.3295 85.939C44.7537 85.9786 43.4734 85.4401 42.7065 84.4607C41.9395 83.4811 41.7241 82.1091 42.1407 80.5888C42.5572 79.0684 43.595 77.4756 45.1968 76.2215C46.7986 74.9674 48.5939 74.3421 50.1698 74.3025C51.7457 74.2629 53.0259 74.8012 53.7928 75.7808Z" stroke="#D2CDC9" stroke-width="2.17959"/>
<path d="M51.0164 79.1558C51.411 79.66 51.5229 80.4366 51.2059 81.3938C50.8908 82.3446 50.1736 83.3753 49.098 84.2174C48.0224 85.0595 46.8503 85.5079 45.8518 85.5857C44.8463 85.6639 44.1187 85.3695 43.7239 84.8654C43.3292 84.3612 43.2174 83.5836 43.5347 82.6261C43.8498 81.6754 44.5663 80.6451 45.6418 79.803C46.7174 78.9609 47.8901 78.5119 48.8887 78.4342C49.8943 78.356 50.6217 78.6517 51.0164 79.1558Z" fill="#D2CDC9" stroke="#D2CDC9" stroke-width="1.63469"/>
<path d="M63.322 80.1923C63.6968 80.6712 63.8061 81.413 63.5008 82.3343C63.1977 83.2491 62.5078 84.243 61.4701 85.0554C60.4325 85.8677 59.302 86.2991 58.3413 86.3739C57.3738 86.4491 56.6797 86.1651 56.3048 85.6863C55.9298 85.2074 55.82 84.465 56.1253 83.5435C56.4284 82.6288 57.119 81.6356 58.1566 80.8232C59.1942 80.0109 60.3241 79.5787 61.2848 79.5039C62.2526 79.4286 62.947 79.7133 63.322 80.1923Z" fill="#D2CDC9" stroke="#D2CDC9" stroke-width="1.63469"/>
<path d="M72.7163 92.0143C72.6428 91.4169 72.0989 90.9923 71.5016 91.0658C70.9042 91.1393 70.4795 91.6832 70.553 92.2805L72.7163 92.0143ZM72.1557 96.3811L73.2374 96.248L72.7163 92.0143L71.6347 92.1474L70.553 92.2805L71.0741 96.5143L72.1557 96.3811Z" fill="#D2CDC9"/>
<path d="M69.447 92.0143C69.3735 91.4169 68.8296 90.9923 68.2323 91.0658C67.6349 91.1393 67.2102 91.6832 67.2838 92.2805L69.447 92.0143ZM68.8864 96.3811L69.9681 96.248L69.447 92.0143L68.3654 92.1474L67.2838 92.2805L67.8048 96.5143L68.8864 96.3811Z" fill="#D2CDC9"/>
<path d="M66.1775 92.0143C66.104 91.4169 65.5601 90.9923 64.9627 91.0658C64.3654 91.1393 63.9407 91.6832 64.0142 92.2805L66.1775 92.0143ZM65.6169 96.3811L66.6985 96.248L66.1775 92.0143L65.0959 92.1474L64.0142 92.2805L64.5353 96.5143L65.6169 96.3811Z" fill="#D2CDC9"/>
<path d="M42.7043 108.013C46.3344 107.989 49.8506 109.279 52.6033 111.646" stroke="#D2CDC9" stroke-width="2.17959" stroke-linecap="round" stroke-linejoin="round"/>
<path d="M43.5219 112.463C42.5861 113.721 41.402 114.773 40.0429 115.554C38.6837 116.335 37.1786 116.828 35.6208 117.004" stroke="#D2CDC9" stroke-width="2.17959" stroke-linecap="round" stroke-linejoin="round"/>
<path d="M47.881 113.916C46.0781 117.107 43.1713 119.529 39.7075 120.727" stroke="#D2CDC9" stroke-width="2.17959" stroke-linecap="round" stroke-linejoin="round"/>
<path d="M51.423 117.004C50.4798 115.754 49.2937 114.708 47.936 113.927C46.5783 113.147 45.0769 112.649 43.522 112.463C42.3406 109.552 42.3406 106.294 43.522 103.382" stroke="#D2CDC9" stroke-width="2.17959" stroke-linecap="round" stroke-linejoin="round"/>
<path d="M38.3453 105.017C37.635 108.592 38.2482 112.304 40.0708 115.46" stroke="#D2CDC9" stroke-width="2.17959" stroke-linecap="round" stroke-linejoin="round"/>
<path d="M43.5218 121.545C48.5374 121.545 52.6034 117.479 52.6034 112.463C52.6034 107.448 48.5374 103.382 43.5218 103.382C38.5062 103.382 34.4402 107.448 34.4402 112.463C34.4402 117.479 38.5062 121.545 43.5218 121.545Z" stroke="#D2CDC9" stroke-width="2.17959" stroke-linecap="round" stroke-linejoin="round"/>
<path d="M39.9796 120.755C39.9796 120.755 37.5456 125.114 29.3541 125.114C23.9051 125.114 22.8155 122.39 17.0939 122.39C11.9175 122.39 5.65111 127.294 2.10923 121.572C-0.905789 116.702 3.74389 110.129 13.5521 112.854" stroke="#D2CDC9" stroke-width="2.17959" stroke-linecap="round"/>
<path d="M68.6883 78.4408C72.8481 74.9314 76.7916 74.4347 82.6108 77.5017" stroke="#D2CDC9" stroke-width="2.27117" stroke-linecap="round"/>
<path d="M37.9727 78.8533C32.6102 75.7845 27.8152 75.9313 21.1267 80.251" stroke="#D2CDC9" stroke-width="2.27117" stroke-linecap="round"/>
<path d="M67.5471 81.5699C72.7856 79.4676 77.2389 80.1253 83.122 84.6545" stroke="#D2CDC9" stroke-width="2.27117" stroke-linecap="round"/>
<path d="M37.8501 82.5978C32.9839 79.5164 28.8667 80.0195 23.4571 85.3594" stroke="#D2CDC9" stroke-width="2.27117" stroke-linecap="round"/>
<path d="M29.1198 96.468C29.06 95.8437 28.5053 95.3862 27.881 95.446C27.2567 95.5059 26.7992 96.0606 26.859 96.6849L29.1198 96.468ZM28.3581 100.42L29.4885 100.312L29.1198 96.468L27.9894 96.5764L26.859 96.6849L27.2278 100.529L28.3581 100.42Z" fill="#D2CDC9"/>
<path d="M32.5266 96.468C32.4667 95.8437 31.912 95.3862 31.2877 95.446C30.6634 95.5059 30.2059 96.0606 30.2658 96.6849L32.5266 96.468ZM31.7649 100.42L32.8953 100.312L32.5266 96.468L31.3962 96.5764L30.2658 96.6849L30.6345 100.529L31.7649 100.42Z" fill="#D2CDC9"/>
<path d="M35.9333 96.468C35.8734 95.8437 35.3188 95.3862 34.6945 95.446C34.0702 95.5059 33.6126 96.0606 33.6725 96.6849L35.9333 96.468ZM35.1716 100.42L36.302 100.312L35.9333 96.468L34.8029 96.5764L33.6725 96.6849L34.0412 100.529L35.1716 100.42Z" fill="#D2CDC9"/>
</svg>
