<svg width="464" height="65" viewBox="0 0 464 65" fill="none" xmlns="http://www.w3.org/2000/svg">
<g clip-path="url(#clip0_226_12747)">
<path d="M35.1964 63.5002C15.0309 65.5091 -1.84958 48.6812 0.165586 28.5785C1.65626 13.6907 13.7335 1.65111 28.6678 0.165076C48.8333 -1.84381 65.7276 14.9841 63.7125 35.0868C62.2218 49.9746 50.1446 62.0141 35.2102 63.5002H35.1964ZM34.5477 16.7315C24.044 14.9978 15.0447 23.9691 16.7838 34.4401C17.8328 40.7832 22.9674 45.9017 29.3304 46.9475C39.8341 48.6674 48.8195 39.71 47.0804 29.2527C46.0314 22.9096 40.8969 17.791 34.5339 16.7453L34.5477 16.7315Z" fill="#FF5500"/>
<path d="M435.332 63.5003C415.166 65.5091 398.272 48.6812 400.301 28.5648C401.792 13.677 413.869 1.63743 428.803 0.151404C448.969 -1.85749 465.863 14.9704 463.848 35.0731C462.357 49.9609 450.28 62.0005 435.346 63.4865L435.332 63.5003ZM434.683 16.7316C424.18 14.9979 415.18 23.9691 416.919 34.4401C417.968 40.7833 423.103 45.9018 429.466 46.9475C439.97 48.6675 448.955 39.71 447.216 29.2528C446.167 22.9097 441.032 17.7911 434.67 16.7454L434.683 16.7316Z" fill="#FF5500"/>
<path d="M100.579 1.499V62.1647C100.579 62.9215 99.9579 63.5407 99.1988 63.5407H85.3962C84.6371 63.5407 84.016 62.9215 84.016 62.1647V39.9294C84.016 39.1726 83.3949 38.5534 82.6357 38.5534H69.7028C68.9436 38.5534 68.3225 37.9342 68.3225 37.1774V23.4179C68.3225 22.6611 68.9436 22.042 69.7028 22.042H82.6357C83.3949 22.042 84.016 21.4228 84.016 20.666V1.499C84.016 0.742225 84.6371 0.123047 85.3962 0.123047H99.1988C99.9579 0.123047 100.579 0.742225 100.579 1.499Z" fill="#FF5500"/>
<path d="M291.51 23.4179V37.1774C291.51 37.9342 290.889 38.5534 290.129 38.5534H277.196C276.437 38.5534 275.816 39.1726 275.816 39.9294V62.1647C275.816 62.9215 275.195 63.5407 274.436 63.5407H260.633C259.874 63.5407 259.253 62.9215 259.253 62.1647V1.499C259.253 0.742225 259.874 0.123047 260.633 0.123047H274.436C275.195 0.123047 275.816 0.742225 275.816 1.499V20.666C275.816 21.4228 276.437 22.042 277.196 22.042H290.129C290.889 22.042 291.51 22.6611 291.51 23.4179Z" fill="#FF5500"/>
<path d="M377.555 25.5369V30.4628C377.555 31.2196 378.176 31.8388 378.935 31.8388H391.868C392.627 31.8388 393.248 32.4579 393.248 33.2147V46.9742C393.248 47.731 392.627 48.3502 391.868 48.3502H378.935C378.176 48.3502 377.555 48.9694 377.555 49.7261V62.1647C377.555 62.9215 376.934 63.5407 376.174 63.5407H362.372C361.613 63.5407 360.992 62.9215 360.992 62.1647V1.499C360.992 0.742225 361.613 0.123047 362.372 0.123047H376.174C376.934 0.123047 377.555 0.742225 377.555 1.499V6.27355C377.555 7.03033 378.176 7.64951 378.935 7.64951H391.868C392.627 7.64951 393.248 8.26869 393.248 9.02546V22.785C393.248 23.5418 392.627 24.1609 391.868 24.1609H378.935C378.176 24.1609 377.555 24.7801 377.555 25.5369Z" fill="#FF5500"/>
<path d="M188.418 0.123047H174.616C173.854 0.123047 173.236 0.739082 173.236 1.499V62.1647C173.236 62.9247 173.854 63.5407 174.616 63.5407H188.418C189.181 63.5407 189.799 62.9247 189.799 62.1647V1.499C189.799 0.739082 189.181 0.123047 188.418 0.123047Z" fill="#FF5500"/>
<path d="M162.18 63.6653H110.696C109.937 63.6653 109.316 63.0462 109.316 62.2894V1.37595C109.316 0.619179 109.937 0 110.696 0H162.18C162.939 0 163.56 0.619179 163.56 1.37595V15.1355C163.56 15.8923 162.939 16.5114 162.18 16.5114H127.259C126.5 16.5114 125.879 17.1306 125.879 17.8874V45.7779C125.879 46.5347 126.5 47.1539 127.259 47.1539H162.18C162.939 47.1539 163.56 47.7731 163.56 48.5299V62.2894C163.56 63.0462 162.939 63.6653 162.18 63.6653Z" fill="#FF5500"/>
<path d="M353.124 63.6645H301.641C300.882 63.6645 300.26 63.0454 300.26 62.2886V1.499C300.26 0.742225 300.882 0.123047 301.641 0.123047H316.824C317.583 0.123047 318.204 0.742225 318.204 1.499V45.7771C318.204 46.5339 318.825 47.1531 319.584 47.1531H353.124C353.883 47.1531 354.504 47.7723 354.504 48.5291V62.2886C354.504 63.0454 353.883 63.6645 353.124 63.6645Z" fill="#FF5500"/>
<path d="M202.138 63.7882L200.441 50.125C200.344 49.382 200.855 48.7078 201.586 48.5977C211.51 47.0704 234.892 40.7823 234.892 27.9584V19.2624C234.892 18.5056 234.271 17.8864 233.511 17.8864H200.648C199.888 17.8864 199.267 17.2673 199.267 16.5105V2.75095C199.267 1.99418 199.888 1.375 200.648 1.375H250.074C250.834 1.375 251.455 1.99418 251.455 2.75095V27.9584C251.455 51.9275 222.083 62.3985 203.698 64.9853C202.939 65.0954 202.249 64.545 202.152 63.7882H202.138Z" fill="#FF5500"/>
</g>
<defs>
<clipPath id="clip0_226_12747">
<rect width="464" height="65" fill="white"/>
</clipPath>
</defs>
</svg>
