<svg width="322" height="481" viewBox="0 0 322 481" fill="none" xmlns="http://www.w3.org/2000/svg">
<path d="M154.149 256.839C154.149 256.839 169.962 222.034 175.991 227.716C182.02 233.398 180.151 248.518 180.151 248.518L236.316 253.718C236.316 253.718 240.463 238.163 247.757 231.876C255.051 225.59 258.575 266.308 259.198 289.081C259.656 305.808 255.038 331.725 255.038 331.725C255.038 331.725 283.705 323.625 289.361 335.885C292.97 343.709 286.24 363.968 286.24 363.968C286.24 363.968 267.223 363.968 255.038 363.968C246.508 363.968 233.196 363.968 233.196 363.968V342.126C233.196 342.126 220.715 347.326 206.154 347.326C193.673 347.326 181.192 344.691 181.192 344.691C181.192 344.691 150.575 372.615 148.95 377.489C145.828 386.85 137.507 386.85 137.507 386.85H114.627C114.627 386.85 98.427 387.733 93.8249 380.609C89.2228 373.485 91.742 369.723 100.064 347.326C108.385 324.93 132.307 302.602 132.307 302.602C132.307 302.602 105.597 285.204 100.065 248.518C95.9044 220.921 103.699 196.173 120.866 182.438C138.034 168.702 154.533 166.204 175.991 170.997C193.673 174.947 211.412 190.326 220.715 204.28C237.357 229.242 241.368 240.682 241.368 240.682" stroke="#514942" stroke-width="12.4811" stroke-linecap="round"/>
<path d="M138.352 172.035C109.23 127.311 154.95 107.551 164.354 75.3078C171.635 50.3457 155.894 9.06532 109.09 6.88767C46.1006 3.95698 42.2836 66.0601 42.2836 66.0601" stroke="#514942" stroke-width="12.4811" stroke-linecap="round"/>
<path d="M253.533 291.958C256.361 295.57 257.188 300.574 255.749 306.067C254.309 311.564 250.632 317.299 244.904 321.784C239.175 326.269 232.725 328.463 227.044 328.542C221.366 328.62 216.706 326.617 213.878 323.005C211.05 319.393 210.224 314.389 211.663 308.896C213.102 303.399 216.78 297.664 222.508 293.179C228.236 288.694 234.686 286.5 240.368 286.422C246.046 286.343 250.705 288.346 253.533 291.958Z" stroke="#514942" stroke-width="8.32072"/>
<path d="M205.646 288.451C208.574 292.19 209.395 297.428 207.805 303.232C206.215 309.036 202.253 315.116 196.138 319.904C190.023 324.691 183.169 327.079 177.153 327.23C171.137 327.382 166.25 325.327 163.322 321.587C160.395 317.847 159.572 312.61 161.162 306.806C162.753 301.002 166.715 294.922 172.83 290.134C178.945 285.347 185.798 282.959 191.814 282.808C197.83 282.657 202.718 284.711 205.646 288.451Z" stroke="#514942" stroke-width="8.32072"/>
<path d="M195.047 301.334C196.554 303.258 196.982 306.225 195.771 309.88C194.569 313.51 191.832 317.444 187.725 320.659C183.619 323.874 179.143 325.587 175.331 325.884C171.492 326.182 168.715 325.055 167.208 323.13C165.701 321.205 165.273 318.239 166.484 314.584C167.687 310.955 170.423 307.02 174.53 303.805C178.636 300.59 183.112 298.877 186.925 298.581C190.763 298.282 193.54 299.409 195.047 301.334Z" fill="#514942" stroke="#514942" stroke-width="6.24054"/>
<path d="M242.023 305.29C243.455 307.119 243.874 309.952 242.708 313.469C241.551 316.961 238.915 320.753 234.954 323.854C230.993 326.956 226.679 328.605 223.012 328.891C219.317 329.178 216.666 328.092 215.235 326.264C213.803 324.436 213.386 321.603 214.551 318.085C215.709 314.593 218.344 310.801 222.305 307.699C226.267 304.598 230.581 302.949 234.248 302.664C237.943 302.376 240.592 303.462 242.023 305.29Z" fill="#514942" stroke="#514942" stroke-width="6.24054"/>
<path d="M277.888 350.423C277.607 348.142 275.531 346.521 273.25 346.802C270.97 347.083 269.349 349.159 269.629 351.439L277.888 350.423ZM275.748 367.094L279.877 366.585L277.888 350.423L273.759 350.931L269.629 351.439L271.619 367.602L275.748 367.094Z" fill="#514942"/>
<path d="M265.407 350.423C265.126 348.142 263.05 346.521 260.769 346.802C258.489 347.083 256.868 349.159 257.148 351.439L265.407 350.423ZM263.267 367.094L267.396 366.585L265.407 350.423L261.277 350.931L257.148 351.439L259.137 367.602L263.267 367.094Z" fill="#514942"/>
<path d="M252.925 350.423C252.645 348.142 250.569 346.521 248.288 346.802C246.008 347.083 244.386 349.159 244.667 351.439L252.925 350.423ZM250.785 367.094L254.915 366.585L252.925 350.423L248.796 350.931L244.667 351.439L246.656 367.602L250.785 367.094Z" fill="#514942"/>
<path d="M163.316 411.501C177.174 411.408 190.598 416.334 201.106 425.369" stroke="#514942" stroke-width="8.32072" stroke-linecap="round" stroke-linejoin="round"/>
<path d="M166.436 428.489C162.864 433.29 158.344 437.306 153.155 440.288C147.966 443.27 142.22 445.154 136.274 445.824" stroke="#514942" stroke-width="8.32072" stroke-linecap="round" stroke-linejoin="round"/>
<path d="M183.078 434.034C176.195 446.216 165.099 455.463 151.875 460.036" stroke="#514942" stroke-width="8.32072" stroke-linecap="round" stroke-linejoin="round"/>
<path d="M196.6 445.824C192.999 441.052 188.471 437.056 183.288 434.078C178.105 431.099 172.373 429.198 166.437 428.489C161.927 417.372 161.927 404.936 166.437 393.819" stroke="#514942" stroke-width="8.32072" stroke-linecap="round" stroke-linejoin="round"/>
<path d="M146.675 400.06C143.964 413.709 146.305 427.879 153.263 439.93" stroke="#514942" stroke-width="8.32072" stroke-linecap="round" stroke-linejoin="round"/>
<path d="M166.437 463.159C185.584 463.159 201.107 447.637 201.107 428.489C201.107 409.341 185.584 393.819 166.437 393.819C147.289 393.819 131.767 409.341 131.767 428.489C131.767 447.637 147.289 463.159 166.437 463.159Z" stroke="#514942" stroke-width="8.32072" stroke-linecap="round" stroke-linejoin="round"/>
<path d="M152.914 460.139C152.914 460.139 143.622 476.781 112.35 476.781C91.5483 476.781 87.3886 466.38 65.5463 466.38C45.7849 466.38 21.8625 485.102 8.34118 463.26C-3.16887 444.667 14.5816 419.576 52.0251 429.977" stroke="#514942" stroke-width="8.32072" stroke-linecap="round"/>
<path d="M262.511 298.605C278.392 285.208 293.446 283.312 315.661 295.02" stroke="#514942" stroke-width="8.67034" stroke-linecap="round"/>
<path d="M145.253 300.18C124.781 288.464 106.475 289.025 80.9418 305.516" stroke="#514942" stroke-width="8.67034" stroke-linecap="round"/>
<path d="M258.155 310.55C278.153 302.525 295.154 305.036 317.613 322.326" stroke="#514942" stroke-width="8.67034" stroke-linecap="round"/>
<path d="M144.784 314.475C126.207 302.711 110.49 304.632 89.838 325.017" stroke="#514942" stroke-width="8.67034" stroke-linecap="round"/>
<path d="M111.456 367.425C111.227 365.042 109.11 363.295 106.727 363.524C104.343 363.753 102.597 365.87 102.825 368.253L111.456 367.425ZM108.548 382.513L112.864 382.099L111.456 367.425L107.141 367.839L102.825 368.253L104.233 382.927L108.548 382.513Z" fill="#514942"/>
<path d="M124.461 367.425C124.233 365.042 122.115 363.295 119.732 363.524C117.349 363.753 115.602 365.87 115.831 368.253L124.461 367.425ZM121.554 382.513L125.869 382.099L124.461 367.425L120.146 367.839L115.831 368.253L117.238 382.927L121.554 382.513Z" fill="#514942"/>
<path d="M137.467 367.425C137.238 365.042 135.121 363.295 132.738 363.524C130.354 363.753 128.607 365.87 128.836 368.253L137.467 367.425ZM134.559 382.513L138.874 382.099L137.467 367.425L133.151 367.839L128.836 368.253L130.244 382.927L134.559 382.513Z" fill="#514942"/>
</svg>
