<svg width="48" height="48" viewBox="0 0 48 48" fill="none" xmlns="http://www.w3.org/2000/svg">
<path d="M12.0801 21.7698C12.0801 21.7698 13.8022 10.0961 16.5601 10.5067C18.7559 10.4961 19.0822 17.1256 19.0822 17.1256L31.238 17.8014C31.238 17.8014 32.9159 10.4961 34.7138 10.8688C37.0317 10.8898 38.198 19.1319 38.9538 24.6561C39.5074 28.713 39.2464 37.694 39.2464 37.694" stroke="#FF5500" stroke-width="2.46737" stroke-linecap="round"/>
<path d="M37.8076 25.2901C38.6202 26.1912 38.9571 27.4585 38.7571 28.848C38.5571 30.2375 37.8181 31.6964 36.5528 32.8606C35.2897 34.0248 33.7844 34.6333 32.3971 34.707C31.0118 34.7806 29.795 34.3238 28.9823 33.4206C28.1697 32.5196 27.8328 31.2522 28.0328 29.8627C28.2328 28.4733 28.9718 27.0143 30.2371 25.8501C31.5002 24.6859 33.0055 24.0775 34.3928 24.0038C35.7781 23.9301 36.9949 24.387 37.8076 25.2901Z" stroke="#FF5500" stroke-width="1.64421"/>
<path d="M26.3535 24.8837C27.1956 25.8163 27.5366 27.1427 27.3072 28.6058C27.0777 30.0711 26.2819 31.6142 24.9345 32.8563C23.5872 34.0963 21.9914 34.7553 20.5282 34.85C19.0651 34.9448 17.7914 34.4774 16.9493 33.5448C16.1072 32.6121 15.7661 31.2858 15.9956 29.8227C16.2251 28.3574 17.0208 26.8142 18.3682 25.5721C19.7156 24.3321 21.3093 23.6732 22.7745 23.5784C24.2377 23.4837 25.5114 23.9511 26.3535 24.8837Z" stroke="#FF5500" stroke-width="1.64421"/>
<path d="M27.5297 30.3454C27.296 31.4528 26.6413 32.5476 25.6876 33.4254C24.7318 34.3054 23.5908 34.8654 22.475 34.9981C22.3045 35.017 22.1381 35.0276 21.9781 35.0276C21.0918 35.0276 20.3403 34.7265 19.8266 34.1581C19.2245 33.4886 19.0181 32.5181 19.2476 31.4276C19.4834 30.3202 20.136 29.2254 21.0918 28.3454C22.0476 27.4654 23.1866 26.9076 24.3024 26.7749C25.4055 26.6423 26.3445 26.9412 26.9508 27.6149C27.555 28.2844 27.7613 29.2528 27.5297 30.3454Z" fill="#FF5500"/>
<path d="M38.8507 29.9734C38.8507 30.2366 38.8212 30.5103 38.7623 30.7924C38.537 31.8639 37.9033 32.925 36.9791 33.7755C36.0549 34.6281 34.9497 35.1692 33.8697 35.2976C33.7054 35.3166 33.5433 35.3271 33.3875 35.3271C32.5286 35.3271 31.8023 35.0345 31.3075 34.485C30.7223 33.8366 30.5244 32.8997 30.7475 31.8429C30.9728 30.7713 31.6065 29.7124 32.5307 28.8597C33.4549 28.0071 34.5602 27.4681 35.6402 27.3397C36.7054 27.2134 37.617 27.4997 38.2023 28.1502C38.6318 28.6239 38.8507 29.2555 38.8507 29.9734Z" fill="#FF5500"/>
<path d="M38.873 27.0699C40.0773 25.8173 41.313 25.3647 42.833 26.0257" stroke="#FF5500" stroke-width="1.64421" stroke-linecap="round"/>
<path d="M13.2902 28.4687C10.7155 26.6793 8.36809 26.5129 5.03125 28.3192" stroke="#FF5500" stroke-width="1.64421" stroke-linecap="round"/>
<path d="M38.2344 29.4959C39.6407 28.7717 40.9817 29.378 42.967 32.0075" stroke="#FF5500" stroke-width="1.64421" stroke-linecap="round"/>
<path d="M12.8614 31.6368C10.293 30.9758 8.36246 31.2431 5.94141 33.2705" stroke="#FF5500" stroke-width="1.64421" stroke-linecap="round"/>
</svg>
