<svg width="82" height="119" viewBox="0 0 82 119" fill="none" xmlns="http://www.w3.org/2000/svg">
<path d="M26.255 79.6478C26.255 79.6478 31.6121 67.8569 33.6544 69.7819C35.6968 71.7068 35.0639 76.8289 35.0639 76.8289L54.0909 78.5907C54.0909 78.5907 55.4959 73.321 57.9668 71.1913C60.4377 69.0616 61.6316 82.8556 61.8426 90.5707C61.9977 96.237 60.4332 105.017 60.4332 105.017C60.4332 105.017 70.1448 102.273 72.0609 106.426C73.2836 109.077 71.0038 115.94 71.0038 115.94C71.0038 115.94 64.5613 115.94 60.4332 115.94C57.5436 115.94 53.0338 115.94 53.0338 115.94V108.541C53.0338 108.541 48.8056 110.302 43.8727 110.302C39.6447 110.302 35.4164 109.409 35.4164 109.409C35.4164 109.409 35.8892 111.044 36.1209 112.769C36.2858 113.996 36.1209 115.94 36.1209 115.94H24.4933C24.4933 115.94 19.0053 116.239 17.4462 113.826C15.8872 111.412 16.1699 106.943 16.7415 102.551C17.3131 98.1581 18.8556 95.1512 18.8556 95.1512C18.8556 95.1512 9.80685 89.2572 7.933 76.8289C6.52339 67.4798 9.16386 59.096 14.9798 54.4429C20.7957 49.7896 26.3853 48.9432 33.6544 50.567C39.6447 51.9051 45.654 57.1151 48.8056 61.8423C54.4435 70.2987 55.8024 74.1743 55.8024 74.1743" stroke="#FE5500" stroke-width="4.22823" stroke-linecap="round"/>
<path d="M22.6704 50.2153C22.6704 50.2153 28.3973 47.7287 26.1563 44.4961C24.5512 42.1807 16.4456 42.0095 14.9517 39.2742C13.4577 36.539 19.4335 33.8027 32.6301 30.5706C45.8268 27.3385 56.6898 19.3814 54.0435 11.6732C51.141 3.21855 35.3124 1.23823 23.4174 4.46204C5.98791 9.18585 3 20.8736 3 20.8736" stroke="#FE5500" stroke-width="4.22823" stroke-linecap="round"/>
<path d="M59.9234 91.5459C60.8814 92.7695 61.1616 94.465 60.6743 96.3259C60.1866 98.1882 58.9406 100.132 57 101.651C55.0595 103.17 52.8745 103.913 50.9497 103.94C49.0262 103.966 47.4476 103.287 46.4895 102.064C45.5317 100.84 45.2519 99.1453 45.7392 97.2846C46.227 95.4224 47.4723 93.4795 49.4128 91.9602C51.3534 90.4408 53.539 89.6975 55.4639 89.6709C57.3871 89.6443 58.9654 90.3226 59.9234 91.5459Z" stroke="#FE5500" stroke-width="2.81882"/>
<path d="M43.701 90.3568C44.6928 91.6236 44.9711 93.3979 44.4325 95.364C43.8938 97.3303 42.5511 99.3908 40.4795 101.013C38.4081 102.634 36.0861 103.443 34.0482 103.494C32.0103 103.545 30.3546 102.849 29.3628 101.583C28.371 100.316 28.0926 98.5416 28.6312 96.5755C29.17 94.6094 30.5121 92.5493 32.5835 90.9274C34.655 89.3055 36.9775 88.4965 39.0156 88.4452C41.0535 88.394 42.7091 89.0901 43.701 90.3568Z" stroke="#FE5500" stroke-width="2.81882"/>
<path d="M43.4555 94.6978C43.9659 95.3498 44.1107 96.3547 43.7005 97.5929C43.2931 98.8225 42.366 100.156 40.9749 101.245C39.5838 102.334 38.067 102.914 36.7756 103.015C35.4751 103.116 34.5343 102.734 34.0238 102.082C33.5134 101.43 33.3685 100.425 33.7787 99.187C34.1862 97.9574 35.1132 96.6241 36.5043 95.5349C37.8954 94.4458 39.4122 93.8657 40.7037 93.7652C42.0041 93.664 42.945 94.0458 43.4555 94.6978Z" fill="#FE5500" stroke="#FE5500" stroke-width="2.11412"/>
<path d="M59.3701 96.0383C59.855 96.6577 59.9966 97.6184 59.6016 98.8101C59.2096 99.9929 58.3162 101.278 56.9745 102.328C55.6326 103.379 54.1713 103.938 52.9289 104.034C51.6773 104.132 50.7794 103.763 50.2944 103.144C49.8097 102.525 49.668 101.565 50.0627 100.374C50.4547 99.1907 51.3475 97.9055 52.6893 96.8548C54.0311 95.8043 55.493 95.246 56.7354 95.1492C57.987 95.0518 58.8851 95.419 59.3701 96.0383Z" fill="#FE5500" stroke="#FE5500" stroke-width="2.11412"/>
<path d="M24.7053 111.389C24.6309 110.614 23.9426 110.046 23.1677 110.12C22.3929 110.194 21.825 110.883 21.8993 111.658L24.7053 111.389ZM23.7599 116.294L25.1629 116.159L24.7053 111.389L23.3023 111.523L21.8993 111.658L22.3569 116.428L23.7599 116.294Z" fill="#FE5500"/>
<path d="M28.9335 111.389C28.8592 110.614 28.1708 110.046 27.396 110.12C26.6211 110.194 26.0533 110.883 26.1276 111.658L28.9335 111.389ZM27.9882 116.294L29.3911 116.159L28.9335 111.389L27.5306 111.523L26.1276 111.658L26.5852 116.428L27.9882 116.294Z" fill="#FE5500"/>
<path d="M33.1617 111.389C33.0874 110.614 32.399 110.046 31.6241 110.12C30.8493 110.194 30.2814 110.883 30.3557 111.658L33.1617 111.389ZM32.2163 116.294L33.6193 116.159L33.1617 111.389L31.7587 111.523L30.3557 111.658L30.8134 116.428L32.2163 116.294Z" fill="#FE5500"/>
<path d="M68.1746 111.352C68.0795 110.58 67.3761 110.03 66.6036 110.126C65.831 110.221 65.2818 110.924 65.3769 111.697L68.1746 111.352ZM67.4496 117L68.8485 116.828L68.1746 111.352L66.7757 111.524L65.3769 111.697L66.0508 117.172L67.4496 117Z" fill="#FE5500"/>
<path d="M63.9463 111.352C63.8512 110.58 63.1479 110.03 62.3753 110.126C61.6027 110.221 61.0535 110.924 61.1486 111.697L63.9463 111.352ZM63.2213 117L64.6202 116.828L63.9463 111.352L62.5475 111.524L61.1486 111.697L61.8225 117.172L63.2213 117Z" fill="#FE5500"/>
<path d="M59.7182 111.352C59.6231 110.58 58.9197 110.03 58.1472 110.126C57.3746 110.221 56.8254 110.924 56.9205 111.697L59.7182 111.352ZM58.9932 117L60.392 116.828L59.7182 111.352L58.3193 111.524L56.9205 111.697L57.5943 117.172L58.9932 117Z" fill="#FE5500"/>
<path d="M62.1873 94.6533C67.3502 90.2976 72.2446 89.6812 79.467 93.4877" stroke="#FE5500" stroke-width="2.81882" stroke-linecap="round"/>
<path d="M24.0654 95.1682C17.4099 91.3594 11.4585 91.5416 3.15729 96.9029" stroke="#FE5500" stroke-width="2.81882" stroke-linecap="round"/>
<path d="M60.7709 98.5389C67.2726 95.9298 72.7998 96.746 80.1015 102.367" stroke="#FE5500" stroke-width="2.81882" stroke-linecap="round"/>
<path d="M23.913 99.8154C17.8735 95.991 12.7635 96.6154 6.04943 103.243" stroke="#FE5500" stroke-width="2.81882" stroke-linecap="round"/>
</svg>
