<svg width="18" height="18" viewBox="0 0 18 18" fill="none" xmlns="http://www.w3.org/2000/svg">
<path d="M12.1357 5.68555H12.1367L15.7529 6.20117H15.752C15.8706 6.21791 15.9848 6.25885 16.0869 6.32129L16.1855 6.39062L16.2725 6.47363C16.327 6.53281 16.373 6.59954 16.4092 6.67188L16.4561 6.78418L16.4863 6.90137C16.5081 7.02083 16.5037 7.14394 16.4736 7.2627C16.4336 7.42085 16.3495 7.56355 16.2324 7.6748V7.67578L13.6172 10.1553C13.532 10.2362 13.4633 10.3305 13.4141 10.4336L13.3711 10.5391C13.3229 10.6832 13.3119 10.8364 13.3379 10.9854L13.9541 14.4863H13.9551C13.9771 14.6075 13.9716 14.7315 13.9414 14.8496L13.9033 14.9658C13.8407 15.1168 13.7364 15.2455 13.6045 15.3389C13.5054 15.409 13.3929 15.4572 13.2754 15.4814L13.1572 15.498C12.9971 15.5089 12.8364 15.4755 12.6934 15.4014V15.4004L9.46289 13.748C9.32082 13.6754 9.16183 13.6367 9 13.6367C8.83824 13.6368 8.67911 13.6745 8.53711 13.7471L8.53809 13.748L5.30664 15.4014L5.30762 15.4023C5.20038 15.4576 5.08308 15.49 4.96387 15.498L4.84375 15.4971C4.68391 15.486 4.52914 15.4321 4.39746 15.3389C4.26569 15.2455 4.16128 15.1166 4.09863 14.9658C4.03596 14.8148 4.01784 14.6486 4.04688 14.4873L4.66309 10.9863L4.67578 10.874C4.67956 10.7988 4.67404 10.7234 4.65918 10.6494L4.62988 10.54C4.59371 10.4317 4.53779 10.3297 4.46387 10.2402L4.38379 10.1553L1.77148 7.67676L1.77051 7.67773C1.65235 7.5666 1.56703 7.42337 1.52637 7.26465C1.48579 7.10603 1.49229 6.9394 1.54395 6.78418L1.59082 6.6709C1.64518 6.56246 1.72157 6.46647 1.81543 6.38965L1.91406 6.32031C2.01633 6.25799 2.13032 6.21678 2.24902 6.2002L5.86328 5.68555H5.86426L5.98242 5.66211C6.09848 5.63134 6.20781 5.58025 6.30469 5.51172L6.39648 5.43848C6.48328 5.35987 6.55442 5.26661 6.60645 5.16406L8.22168 1.97461H8.22266L8.28516 1.87109C8.35436 1.77231 8.44278 1.68833 8.5459 1.62598L8.65234 1.57129C8.7621 1.52398 8.88116 1.5 9.00098 1.5L9.12012 1.50781C9.19866 1.51856 9.27564 1.53985 9.34863 1.57129L9.45508 1.62598L9.55371 1.69531C9.61588 1.7458 9.67064 1.80515 9.7168 1.87109L9.7793 1.97461L11.3955 5.16406L11.4541 5.2627C11.5184 5.35832 11.6004 5.44313 11.6973 5.51172L11.7979 5.57422C11.9018 5.63056 12.0163 5.6683 12.1357 5.68555Z" fill="#FFC23D" stroke="#FFC23D" stroke-linecap="round" stroke-linejoin="round"/>
</svg>
