<svg width="24" height="24" viewBox="0 0 24 24" fill="none" xmlns="http://www.w3.org/2000/svg">
<g filter="url(#filter0_d_142_12739)">
<g filter="url(#filter1_d_142_12739)">
<path d="M11.6682 6.20101C11.6988 6.14066 11.7462 6.08986 11.805 6.05434C11.8637 6.01882 11.9315 6 12.0006 6C12.0698 6 12.1375 6.01882 12.1963 6.05434C12.255 6.08986 12.3024 6.14066 12.3331 6.20101L13.95 9.39033C14.0565 9.60025 14.2137 9.78186 14.4081 9.91958C14.6026 10.0573 14.8285 10.147 15.0664 10.181L18.6822 10.6963C18.7507 10.706 18.8151 10.7341 18.8681 10.7776C18.921 10.821 18.9604 10.878 18.9818 10.9421C19.0032 11.0062 19.0058 11.0749 18.9892 11.1404C18.9726 11.2058 18.9376 11.2654 18.888 11.3125L16.273 13.7923C16.1006 13.9559 15.9716 14.1579 15.8971 14.3809C15.8226 14.6039 15.8048 14.8412 15.8454 15.0724L16.4627 18.5759C16.4748 18.6426 16.4674 18.7113 16.4414 18.774C16.4153 18.8368 16.3717 18.8912 16.3154 18.931C16.2592 18.9708 16.1925 18.9944 16.1232 18.9991C16.0538 19.0038 15.9845 18.9894 15.9231 18.9576L12.6908 17.3026C12.4778 17.1937 12.2408 17.1368 12.0003 17.1368C11.7597 17.1368 11.5228 17.1937 11.3098 17.3026L8.07818 18.9576C8.01682 18.9893 7.94757 19.0035 7.87832 18.9987C7.80906 18.9939 7.74258 18.9703 7.68642 18.9305C7.63027 18.8907 7.58671 18.8364 7.56069 18.7737C7.53467 18.711 7.52723 18.6425 7.53923 18.5759L8.15588 15.073C8.19661 14.8418 8.17896 14.6044 8.10446 14.3812C8.02995 14.1581 7.90082 13.956 7.72821 13.7923L5.11325 11.3132C5.06327 11.2662 5.02785 11.2064 5.01103 11.1408C4.99421 11.0751 4.99667 11.0062 5.01811 10.9418C5.03956 10.8775 5.07914 10.8203 5.13234 10.7767C5.18554 10.7332 5.25023 10.7051 5.31903 10.6956L8.93421 10.181C9.17236 10.1473 9.39854 10.0577 9.59325 9.91994C9.78797 9.78221 9.94541 9.60046 10.052 9.39033L11.6682 6.20101Z" fill="#FFC23D"/>
<path d="M15.1357 9.68555H15.1367L18.7529 10.2012H18.752C18.8706 10.2179 18.9848 10.2589 19.0869 10.3213L19.1855 10.3906L19.2725 10.4736C19.327 10.5328 19.373 10.5995 19.4092 10.6719L19.4561 10.7842L19.4863 10.9014C19.5081 11.0208 19.5037 11.1439 19.4736 11.2627C19.4336 11.4208 19.3495 11.5635 19.2324 11.6748V11.6758L16.6172 14.1553C16.532 14.2362 16.4633 14.3305 16.4141 14.4336L16.3711 14.5391C16.3229 14.6832 16.3119 14.8364 16.3379 14.9854L16.9541 18.4863H16.9551C16.9771 18.6075 16.9716 18.7315 16.9414 18.8496L16.9033 18.9658C16.8407 19.1168 16.7364 19.2455 16.6045 19.3389C16.5054 19.409 16.3929 19.4572 16.2754 19.4814L16.1572 19.498C15.9971 19.5089 15.8364 19.4755 15.6934 19.4014V19.4004L12.4629 17.748C12.3208 17.6754 12.1618 17.6367 12 17.6367C11.8382 17.6368 11.6791 17.6745 11.5371 17.7471L11.5381 17.748L8.30664 19.4014L8.30762 19.4023C8.20038 19.4576 8.08308 19.49 7.96387 19.498L7.84375 19.4971C7.68391 19.486 7.52914 19.4321 7.39746 19.3389C7.26569 19.2455 7.16128 19.1166 7.09863 18.9658C7.03596 18.8148 7.01784 18.6486 7.04688 18.4873L7.66309 14.9863L7.67578 14.874C7.67956 14.7988 7.67404 14.7234 7.65918 14.6494L7.62988 14.54C7.59371 14.4317 7.53779 14.3297 7.46387 14.2402L7.38379 14.1553L4.77148 11.6768L4.77051 11.6777C4.65235 11.5666 4.56703 11.4234 4.52637 11.2646C4.48579 11.106 4.49229 10.9394 4.54395 10.7842L4.59082 10.6709C4.64518 10.5625 4.72157 10.4665 4.81543 10.3896L4.91406 10.3203C5.01633 10.258 5.13032 10.2168 5.24902 10.2002L8.86328 9.68555H8.86426L8.98242 9.66211C9.09848 9.63134 9.20781 9.58025 9.30469 9.51172L9.39648 9.43848C9.48328 9.35987 9.55442 9.26661 9.60645 9.16406L11.2217 5.97461H11.2227L11.2852 5.87109C11.3544 5.77231 11.4428 5.68833 11.5459 5.62598L11.6523 5.57129C11.7621 5.52398 11.8812 5.5 12.001 5.5L12.1201 5.50781C12.1987 5.51856 12.2756 5.53985 12.3486 5.57129L12.4551 5.62598L12.5537 5.69531C12.6159 5.7458 12.6706 5.80515 12.7168 5.87109L12.7793 5.97461L14.3955 9.16406L14.4541 9.2627C14.5184 9.35832 14.6004 9.44313 14.6973 9.51172L14.7979 9.57422C14.9018 9.63056 15.0163 9.6683 15.1357 9.68555Z" stroke="#FFC23D" stroke-linecap="round" stroke-linejoin="round"/>
</g>
</g>
<defs>
<filter id="filter0_d_142_12739" x="-3.9" y="-3.9" width="31.8" height="31.8" filterUnits="userSpaceOnUse" color-interpolation-filters="sRGB">
<feFlood flood-opacity="0" result="BackgroundImageFix"/>
<feColorMatrix in="SourceAlpha" type="matrix" values="0 0 0 0 0 0 0 0 0 0 0 0 0 0 0 0 0 0 127 0" result="hardAlpha"/>
<feOffset/>
<feGaussianBlur stdDeviation="1.95"/>
<feComposite in2="hardAlpha" operator="out"/>
<feColorMatrix type="matrix" values="0 0 0 0 0 0 0 0 0 0 0 0 0 0 0 0 0 0 0.2 0"/>
<feBlend mode="normal" in2="BackgroundImageFix" result="effect1_dropShadow_142_12739"/>
<feBlend mode="normal" in="SourceGraphic" in2="effect1_dropShadow_142_12739" result="shape"/>
</filter>
<filter id="filter1_d_142_12739" x="0.0999999" y="1.1" width="23.8" height="22.8" filterUnits="userSpaceOnUse" color-interpolation-filters="sRGB">
<feFlood flood-opacity="0" result="BackgroundImageFix"/>
<feColorMatrix in="SourceAlpha" type="matrix" values="0 0 0 0 0 0 0 0 0 0 0 0 0 0 0 0 0 0 127 0" result="hardAlpha"/>
<feOffset/>
<feGaussianBlur stdDeviation="1.95"/>
<feComposite in2="hardAlpha" operator="out"/>
<feColorMatrix type="matrix" values="0 0 0 0 0 0 0 0 0 0 0 0 0 0 0 0 0 0 0.2 0"/>
<feBlend mode="normal" in2="BackgroundImageFix" result="effect1_dropShadow_142_12739"/>
<feBlend mode="normal" in="SourceGraphic" in2="effect1_dropShadow_142_12739" result="shape"/>
</filter>
</defs>
</svg>
